<svg width="20" height="20" viewBox="0 0 20 20" fill="none" xmlns="http://www.w3.org/2000/svg">
<path d="M9.99961 0.799988C6.47148 0.799988 3.59961 3.67186 3.59961 7.19999C3.59961 12.0312 9.45117 18.7781 9.69961 19.0625C9.77617 19.15 9.88398 19.2 9.99961 19.2C10.1152 19.2 10.223 19.1484 10.2996 19.0625C10.548 18.7781 16.3996 12.0609 16.3996 7.19999C16.3996 3.67186 13.5277 0.799988 9.99961 0.799988ZM9.99961 4.73749L13.1996 6.66249L12.7996 7.33749V10.4H7.19961V7.33749L6.79961 6.66249L9.99961 4.73749ZM9.99961 5.66249L7.99961 6.86249V9.59999H9.19961V7.59999H10.7996V9.59999H11.9996V6.86249L9.99961 5.66249Z" fill="#333333"/>
</svg>
