<svg width="30" height="30" viewBox="0 0 30 30" fill="none" xmlns="http://www.w3.org/2000/svg">
<path d="M25.565 9.78502C25.442 9.86202 22.514 11.487 22.514 15.09C22.652 19.199 26.209 20.64 26.27 20.64C26.209 20.717 25.733 22.603 24.323 24.58C23.204 26.283 21.962 28 20.076 28C18.282 28 17.638 26.865 15.568 26.865C13.345 26.865 12.716 28 11.014 28C9.128 28 7.794 26.191 6.614 24.504C5.081 22.296 3.778 18.831 3.732 15.504C3.701 13.741 4.039 12.008 4.897 10.536C6.108 8.48102 8.27 7.08602 10.631 7.04002C12.44 6.97902 14.05 8.28202 15.154 8.28202C16.212 8.28202 18.19 7.04002 20.428 7.04002C21.394 7.04102 23.97 7.33202 25.565 9.78502ZM15.001 6.68802C14.679 5.07802 15.568 3.46802 16.396 2.44102C17.454 1.19902 19.125 0.356018 20.566 0.356018C20.658 1.96602 20.075 3.54502 19.033 4.69502C18.098 5.93702 16.488 6.87202 15.001 6.68802Z" fill="black"/>
</svg>
