<svg xmlns="http://www.w3.org/2000/svg"  viewBox="0 0 64 64" width="48px" height="48px"><path d="M 20 10 C 16.691 10 14 12.691 14 16 L 14 48 C 14 51.309 16.691 54 20 54 L 44 54 C 47.309 54 50 51.309 50 48 L 50 16 C 50 12.691 47.309 10 44 10 L 20 10 z M 20 14 L 44 14 C 45.103 14 46 14.897 46 16 L 46 48 C 46 49.103 45.103 50 44 50 L 20 50 C 18.897 50 18 49.103 18 48 L 18 16 C 18 14.897 18.897 14 20 14 z M 23 20 C 22.447 20 22 20.448 22 21 C 22 21.552 22.447 22 23 22 L 41 22 C 41.553 22 42 21.552 42 21 C 42 20.448 41.553 20 41 20 L 23 20 z M 23 28 C 22.447 28 22 28.448 22 29 C 22 29.552 22.447 30 23 30 L 33 30 C 33.553 30 34 29.552 34 29 C 34 28.448 33.553 28 33 28 L 23 28 z M 39 28 C 38.447 28 38 28.448 38 29 C 38 29.552 38.447 30 39 30 L 41 30 C 41.553 30 42 29.552 42 29 C 42 28.448 41.553 28 41 28 L 39 28 z M 23 34 C 22.447 34 22 34.448 22 35 C 22 35.552 22.447 36 23 36 L 33 36 C 33.553 36 34 35.552 34 35 C 34 34.448 33.553 34 33 34 L 23 34 z M 39 34 C 38.447 34 38 34.448 38 35 C 38 35.552 38.447 36 39 36 L 41 36 C 41.553 36 42 35.552 42 35 C 42 34.448 41.553 34 41 34 L 39 34 z M 23 40 C 22.447 40 22 40.448 22 41 C 22 41.552 22.447 42 23 42 L 33 42 C 33.553 42 34 41.552 34 41 C 34 40.448 33.553 40 33 40 L 23 40 z M 39 40 C 38.447 40 38 40.448 38 41 C 38 41.552 38.447 42 39 42 L 41 42 C 41.553 42 42 41.552 42 41 C 42 40.448 41.553 40 41 40 L 39 40 z"/></svg>