<svg width="20" height="21" viewBox="0 0 20 21" fill="none" xmlns="http://www.w3.org/2000/svg">
<rect width="20" height="20" transform="translate(0 0.5)" fill="white"/>
<path d="M9.27038 17.9963C9.16132 17.9963 9.04975 17.9775 8.93882 17.9391C8.48913 17.7831 8.23069 17.3613 8.29663 16.8897L9.016 11.75H6.80444C6.53132 11.75 6.27225 11.6313 6.09413 11.4244C5.916 11.2175 5.83694 10.9441 5.87725 10.6741L6.90569 3.78125C6.97382 3.32563 7.37225 2.98219 7.83288 2.98219H11.2916C11.5948 2.98219 11.8804 3.12969 12.056 3.37688C12.2316 3.62406 12.2766 3.94219 12.1769 4.22844L10.7526 8.3125H13.8338C14.1738 8.3125 14.4779 8.48844 14.6469 8.78344C14.8163 9.07813 14.8148 9.42938 14.6432 9.72281L10.0929 17.5125C9.91194 17.8225 9.6035 17.9963 9.27038 17.9963Z" fill="#333333"/>
</svg>
