<svg width="20" height="21" viewBox="0 0 20 21" fill="none" xmlns="http://www.w3.org/2000/svg">
<g clip-path="url(#clip0_441_925)">
<path d="M9.92068 0.338615C9.90596 0.340363 9.89238 0.350186 9.87771 0.352938C9.83014 0.361974 9.78687 0.378159 9.7423 0.397209C9.71816 0.407408 9.69274 0.408667 9.66938 0.421948L2.78006 4.36596C2.76333 4.37551 2.75396 4.39168 2.73839 4.40242C2.7346 4.40412 2.73044 4.40456 2.72667 4.40632C2.72 4.40632 2.72032 4.40617 2.71365 4.41283C2.60698 4.46617 2.51355 4.53304 2.44021 4.62637L0.179796 7.48705C-0.0735376 7.80705 -0.0599439 8.34731 0.280056 8.58731L2.00011 9.67976V14.8529C2.00011 15.0929 2.10058 15.3472 2.31391 15.4805L9.57302 20.2006C9.69969 20.2806 9.85344 20.3204 10.0001 20.3204C10.1468 20.3204 10.3005 20.2806 10.4272 20.2006L17.6407 15.4805C17.8607 15.3472 17.9871 15.1139 17.9871 14.8673V9.70059L19.7202 8.58731C20.0602 8.34731 20.0868 7.80054 19.8334 7.48054L17.56 4.62637C17.5443 4.60542 17.5234 4.5868 17.5027 4.56908L17.5014 4.56648C17.4976 4.56143 17.4911 4.5584 17.4871 4.55346L17.4845 4.55085C17.4342 4.48953 17.3751 4.43483 17.3022 4.3933L10.3295 0.420646C10.3064 0.407464 10.2806 0.407339 10.2566 0.397209C10.2124 0.378466 10.1696 0.361851 10.1225 0.352938C10.0811 0.345134 10.0417 0.343708 10.0001 0.343823C9.97339 0.343747 9.94745 0.335436 9.92068 0.338615ZM10.0001 1.767L15.6147 4.96492L15.6134 4.96622L12.4871 6.98054L12.5066 6.99356L10.0001 8.58731L9.4936 8.267V8.26049L4.42068 4.96622L4.41808 4.96492L10.0001 1.767ZM3.23318 6.06648L8.78657 9.58731L6.84646 11.4337L1.82042 7.85294L3.23318 6.06648ZM16.767 6.06648L18.1798 7.85294L13.1538 11.4337L11.2136 9.58731L16.767 6.06648Z" fill="#333333"/>
</g>
<defs>
<clipPath id="clip0_441_925">
<rect width="20" height="20" fill="white" transform="translate(0 0.333496)"/>
</clipPath>
</defs>
</svg>
