<svg width="20" height="20" viewBox="0 0 20 20" fill="none" xmlns="http://www.w3.org/2000/svg">
<path d="M10.0007 3.33331C13.6826 3.33331 16.6673 6.31803 16.6673 9.99998C16.6673 13.6819 13.6826 16.6666 10.0007 16.6666C6.31871 16.6666 3.33398 13.6819 3.33398 9.99998C3.33398 6.31803 6.31871 3.33331 10.0007 3.33331ZM11.1793 12.3569C11.5045 12.6822 12.0323 12.6825 12.3579 12.3569C12.6834 12.0314 12.6832 11.5039 12.3579 11.1783C12.2932 11.1139 11.6848 10.5055 11.1793 9.99998C11.6848 9.49442 12.2932 8.88609 12.3579 8.82137C12.6832 8.49609 12.6834 7.96831 12.3579 7.64276C12.0326 7.31748 11.5048 7.31748 11.1793 7.64276C11.1145 7.70748 10.5062 8.31581 10.0007 8.82137C9.4951 8.31581 8.88676 7.70748 8.82204 7.64276C8.49676 7.31748 7.96898 7.3172 7.64343 7.64276C7.31787 7.96831 7.31815 8.49581 7.64343 8.82137C7.70787 8.88581 8.31648 9.49442 8.82204 9.99998C8.31648 10.5055 7.70815 11.1139 7.64343 11.1786C7.31815 11.5039 7.31815 12.0316 7.64343 12.3572C7.96898 12.6828 8.49648 12.6825 8.82204 12.3572C8.88648 12.2928 9.4951 11.6841 10.0007 11.1786C10.5062 11.6841 11.1145 12.2925 11.1793 12.3569Z" fill="#333333"/>
</svg>
