<svg width="20" height="20" viewBox="0 0 20 20" fill="none" xmlns="http://www.w3.org/2000/svg">
<path d="M17.6008 3.60001H2.40078C1.51797 3.60001 0.800781 4.31719 0.800781 5.20001V14.8C0.800781 15.6828 1.51797 16.4 2.40078 16.4H17.6008C18.4836 16.4 19.2008 15.6828 19.2008 14.8V5.20001C19.2008 4.31719 18.4836 3.60001 17.6008 3.60001ZM3.20078 13.6C3.29766 11.9891 5.36953 12.2234 5.68047 11.3891C5.70547 11.1031 5.68047 10.9031 5.68047 10.6422C5.55078 10.5734 5.18828 10.2063 5.13203 9.79688C5.13203 9.79688 4.83984 9.65782 4.82422 9.21719C4.81484 8.98438 4.97891 8.81876 4.97891 8.81876C4.67422 7.64532 4.80547 6.42813 6.37578 6.40001C6.76797 6.40001 7.06328 6.58907 7.18047 6.79688C8.27266 6.79688 7.98984 8.32032 7.82422 8.81876C7.88516 8.87969 7.96016 9.04844 7.96016 9.27657C7.96016 9.60313 7.65078 9.79688 7.65078 9.79688C7.59297 10.2125 7.29922 10.5563 7.12109 10.6422C7.12109 10.9031 7.09453 11.1031 7.12109 11.3891C7.43203 12.2234 9.50391 11.9891 9.60078 13.6H3.20078ZM16.4008 12.4H11.6008C11.3789 12.4 11.2008 12.2219 11.2008 12C11.2008 11.7781 11.3789 11.6 11.6008 11.6H16.4008C16.6227 11.6 16.8008 11.7781 16.8008 12C16.8008 12.2219 16.6227 12.4 16.4008 12.4ZM16.4008 10.4H11.6008C11.3789 10.4 11.2008 10.2203 11.2008 10C11.2008 9.77969 11.3789 9.60001 11.6008 9.60001H16.4008C16.6227 9.60001 16.8008 9.77969 16.8008 10C16.8008 10.2203 16.6227 10.4 16.4008 10.4ZM16.4008 8.40001H11.6008C11.3789 8.40001 11.2008 8.22032 11.2008 8.00001C11.2008 7.77969 11.3789 7.60001 11.6008 7.60001H16.4008C16.6227 7.60001 16.8008 7.77969 16.8008 8.00001C16.8008 8.22032 16.6227 8.40001 16.4008 8.40001Z" fill="black"/>
</svg>
