<svg width="20" height="20" viewBox="0 0 20 20" fill="none" xmlns="http://www.w3.org/2000/svg">
<path d="M9.33333 1.33337V6.76046C10.4813 7.05779 11.3333 8.09204 11.3333 9.33337C11.3333 9.75404 11.2274 10.1473 11.0534 10.5013L12.7969 12.0209C12.8622 12.0069 12.93 12 13 12C13.552 12 14 12.448 14 13C14 13.552 13.552 14 13 14C12.4833 14 12.0624 13.6062 12.0104 13.1029L10.1901 11.517C9.5841 11.941 8.79884 12.1256 7.96484 11.9089C7.03218 11.6676 6.28495 10.8971 6.07161 9.95707C5.72895 8.4504 6.664 7.10712 8 6.76046V1.45968C4.58733 2.08768 2 5.07271 2 8.66671C2 11.3507 3.50095 13.1978 4.48828 14.1224C5.02828 14.6278 5.33333 15.3297 5.33333 16.069V18.6667H12V17.6276C12 17.0536 12.3668 16.5447 12.9115 16.3633L14.6328 15.7904C15.4495 15.5171 16 14.7526 16 13.892V11.8295L17.5117 11.3086C17.6521 11.2697 17.7758 11.1858 17.8639 11.0699C17.9521 10.954 17.9999 10.8124 18 10.6667C17.9995 10.5133 17.9462 10.3648 17.849 10.2461L17.8307 10.224C17.8244 10.2165 17.8179 10.2091 17.8112 10.2019L15.974 7.99874C15.7023 4.26213 13.1579 1.33337 9.33333 1.33337ZM8.66667 8.00004C8.31305 8.00004 7.97391 8.14052 7.72386 8.39056C7.47381 8.64061 7.33333 8.97975 7.33333 9.33337C7.33333 9.687 7.47381 10.0261 7.72386 10.2762C7.97391 10.5262 8.31305 10.6667 8.66667 10.6667C9.02029 10.6667 9.35943 10.5262 9.60948 10.2762C9.85952 10.0261 10 9.687 10 9.33337C10 8.97975 9.85952 8.64061 9.60948 8.39056C9.35943 8.14052 9.02029 8.00004 8.66667 8.00004Z" fill="#333333"/>
</svg>
