<svg width="15" height="15" viewBox="0 0 15 15" fill="none" xmlns="http://www.w3.org/2000/svg">
<path d="M7.5 1.25C4.05562 1.25 1.25 4.05562 1.25 7.5C1.25 10.9444 4.05562 13.75 7.5 13.75C10.9444 13.75 13.75 10.9444 13.75 7.5C13.75 4.05562 10.9444 1.25 7.5 1.25ZM7.5 2.5C10.2688 2.5 12.5 4.73117 12.5 7.5C12.5 10.2688 10.2688 12.5 7.5 12.5C4.73117 12.5 2.5 10.2688 2.5 7.5C2.5 4.73117 4.73117 2.5 7.5 2.5ZM7.5 4.37866C6.69891 4.37866 5.8981 4.68296 5.29053 5.29053C4.07539 6.50567 4.07539 8.49433 5.29053 9.70947C6.50567 10.9246 8.49433 10.9246 9.70947 9.70947L8.82568 8.82568C8.08832 9.56304 6.91168 9.56304 6.17432 8.82568C5.43696 8.08832 5.43696 6.91168 6.17432 6.17432C6.91168 5.43696 8.08832 5.43696 8.82568 6.17432L9.70947 5.29053C9.1019 4.68296 8.30109 4.37866 7.5 4.37866Z" fill="#333333"/>
</svg>
