<svg width="20" height="21" viewBox="0 0 20 21" fill="none" xmlns="http://www.w3.org/2000/svg">
<path d="M1.81818 0.333374C0.813636 0.333374 0 1.14701 0 2.15156V18.5152C0 19.5197 0.813636 20.3334 1.81818 20.3334H5.45454C6.45909 20.3334 7.27272 19.5197 7.27272 18.5152V2.15156C7.27272 1.14701 6.45909 0.333374 5.45454 0.333374H1.81818ZM13.7926 3.06065C13.3274 3.06065 12.8621 3.23832 12.5071 3.59332L9.09091 7.00951V17.2936L17.6491 8.73537C18.3591 8.02537 18.3591 6.87434 17.6491 6.16434L15.0781 3.59332C14.7231 3.23832 14.2578 3.06065 13.7926 3.06065ZM15.8949 13.0606L8.62216 20.3334H18.1818C19.1864 20.3334 20 19.5197 20 18.5152V14.8788C20 13.8743 19.1864 13.0606 18.1818 13.0606H15.8949ZM3.63636 16.697C4.13818 16.697 4.54545 17.1043 4.54545 17.6061C4.54545 18.1079 4.13818 18.5152 3.63636 18.5152C3.13454 18.5152 2.72727 18.1079 2.72727 17.6061C2.72727 17.1043 3.13454 16.697 3.63636 16.697Z" fill="black"/>
</svg>
