<svg width="20" height="21" viewBox="0 0 20 21" fill="none" xmlns="http://www.w3.org/2000/svg">
<path d="M7.16667 4.5C6.3463 4.5 5.62997 4.94799 5.24501 5.61111H4.11111C3.4975 5.61111 3 6.10861 3 6.72222C3 7.33583 3.4975 7.83333 4.11111 7.83333H5.24501C5.62997 8.49646 6.3463 8.94444 7.16667 8.94444C7.98703 8.94444 8.70336 8.49646 9.08832 7.83333H15.7778C16.3914 7.83333 16.8889 7.33583 16.8889 6.72222C16.8889 6.10861 16.3914 5.61111 15.7778 5.61111H9.08832C8.70336 4.94799 7.98703 4.5 7.16667 4.5ZM12.7222 8.38889C11.9019 8.38889 11.1855 8.83687 10.8006 9.5H4.11111C3.4975 9.5 3 9.9975 3 10.6111C3 11.2247 3.4975 11.7222 4.11111 11.7222H10.8006C11.1855 12.3853 11.9019 12.8333 12.7222 12.8333C13.5426 12.8333 14.2589 12.3853 14.6439 11.7222H15.7778C16.3914 11.7222 16.8889 11.2247 16.8889 10.6111C16.8889 9.9975 16.3914 9.5 15.7778 9.5H14.6439C14.2589 8.83687 13.5426 8.38889 12.7222 8.38889ZM8.27778 12.2778C7.45741 12.2778 6.74108 12.7258 6.35612 13.3889H4.11111C3.4975 13.3889 3 13.8864 3 14.5C3 15.1136 3.4975 15.6111 4.11111 15.6111H6.35612C6.74108 16.2742 7.45741 16.7222 8.27778 16.7222C9.09814 16.7222 9.81447 16.2742 10.1994 15.6111H15.7778C16.3914 15.6111 16.8889 15.1136 16.8889 14.5C16.8889 13.8864 16.3914 13.3889 15.7778 13.3889H10.1994C9.81447 12.7258 9.09814 12.2778 8.27778 12.2778Z" fill="#333333"/>
</svg>
