<svg width="20" height="20" viewBox="0 0 20 20" fill="none" xmlns="http://www.w3.org/2000/svg">
<path d="M10.0004 2.79999C5.80352 2.79999 2.40039 6.20311 2.40039 10.4C2.40039 14.5969 5.80352 18 10.0004 18C14.1973 18 17.6004 14.5969 17.6004 10.4C17.6004 6.20311 14.1973 2.79999 10.0004 2.79999ZM3.33789 3.59999C3.25039 3.61561 3.17227 3.65936 3.11289 3.72499C1.43945 5.45311 0.400391 7.80624 0.400391 10.4C0.400391 12.5969 1.14414 14.6312 2.38789 16.25C2.52539 16.4266 2.78008 16.4562 2.95664 16.3187C3.1332 16.1812 3.16289 15.9266 3.02539 15.75C1.88477 14.2656 1.20039 12.4172 1.20039 10.4C1.20039 8.01874 2.15195 5.85936 3.68789 4.27499C3.80977 4.15155 3.83789 3.96405 3.7582 3.81093C3.67852 3.6578 3.5082 3.57186 3.33789 3.59999ZM16.5254 3.59999C16.3801 3.62655 16.2598 3.73124 16.216 3.87343C16.1707 4.01561 16.2082 4.1703 16.3129 4.27499C17.8488 5.85936 18.8004 8.01874 18.8004 10.4C18.8004 12.4172 18.116 14.2656 16.9754 15.75C16.8379 15.9266 16.8676 16.1812 17.0441 16.3187C17.2207 16.4562 17.4754 16.4266 17.6129 16.25C18.8566 14.6312 19.6004 12.5969 19.6004 10.4C19.6004 7.80624 18.5613 5.45311 16.8879 3.72499C16.7957 3.62499 16.6598 3.57655 16.5254 3.59999ZM9.60039 5.59999H10.4004C10.6207 5.59999 10.8004 5.77968 10.8004 5.99999V11.2C10.8004 11.4203 10.6207 11.6 10.4004 11.6H9.60039C9.38008 11.6 9.20039 11.4203 9.20039 11.2V5.99999C9.20039 5.77968 9.38008 5.59999 9.60039 5.59999ZM9.60039 13.2H10.4004C10.6207 13.2 10.8004 13.3797 10.8004 13.6V14.4C10.8004 14.6203 10.6207 14.8 10.4004 14.8H9.60039C9.38008 14.8 9.20039 14.6203 9.20039 14.4V13.6C9.20039 13.3797 9.38008 13.2 9.60039 13.2Z" fill="#333333"/>
</svg>
