<svg width="20" height="20" viewBox="0 0 20 20" fill="none" xmlns="http://www.w3.org/2000/svg">
<g clip-path="url(#clip0_302_4257)">
<path d="M1.99973 3.33334C1.26306 3.33334 0.666396 3.93001 0.666396 4.66668V14C0.578055 13.9988 0.490346 14.0151 0.408367 14.048C0.326389 14.081 0.251774 14.1299 0.188861 14.1919C0.125948 14.2539 0.0759908 14.3278 0.0418923 14.4094C0.00779384 14.4909 -0.00976562 14.5783 -0.00976562 14.6667C-0.00976563 14.755 0.00779384 14.8425 0.0418923 14.924C0.0759908 15.0055 0.125948 15.0794 0.188861 15.1415C0.251774 15.2035 0.326389 15.2524 0.408367 15.2853C0.490346 15.3183 0.578055 15.3346 0.666396 15.3333H1.99973H2.70025C2.86518 16.457 3.83311 17.3333 4.99973 17.3333C6.16635 17.3333 7.13428 16.457 7.29921 15.3333H11.9997H13.3669C13.5318 16.457 14.4998 17.3333 15.6664 17.3333C16.833 17.3333 17.8009 16.457 17.9659 15.3333H19.3331C19.4214 15.3346 19.5091 15.3183 19.5911 15.2853C19.6731 15.2524 19.7477 15.2035 19.8106 15.1415C19.8735 15.0794 19.9235 15.0055 19.9576 14.924C19.9917 14.8425 20.0092 14.755 20.0092 14.6667C20.0092 14.5783 19.9917 14.4909 19.9576 14.4094C19.9235 14.3278 19.8735 14.2539 19.8106 14.1919C19.7477 14.1299 19.6731 14.081 19.5911 14.048C19.5091 14.0151 19.4214 13.9988 19.3331 14V10.6667H15.3331V8.00001C15.3331 7.63201 15.6317 7.33334 15.9997 7.33334H17.9047L17.6794 6.8086C17.4694 6.3186 16.9875 6.00001 16.4542 6.00001H11.9997V4.66668C11.9997 3.93001 11.4031 3.33334 10.6664 3.33334H1.99973ZM5.99973 5.33334C7.8404 5.33334 9.33306 6.82601 9.33306 8.66668C9.33306 10.5073 7.8404 12 5.99973 12C4.15906 12 2.6664 10.5073 2.6664 8.66668C2.6664 6.82601 4.15906 5.33334 5.99973 5.33334ZM5.98931 5.9909C5.81273 5.99366 5.64445 6.06636 5.52142 6.19306C5.39839 6.31975 5.33064 6.49009 5.33306 6.66668V8.66668C5.33305 8.79049 5.36752 8.91186 5.43261 9.01719C5.49769 9.12252 5.59082 9.20765 5.70155 9.26303L7.03489 9.9297C7.1132 9.96887 7.19847 9.99224 7.28581 9.99846C7.37316 10.0047 7.46088 9.99363 7.54395 9.96594C7.62703 9.93826 7.70384 9.89448 7.76999 9.83711C7.83615 9.77974 7.89036 9.70989 7.92952 9.63157C7.96868 9.55325 7.99203 9.46798 7.99823 9.38063C8.00444 9.29328 7.99337 9.20557 7.96567 9.1225C7.93798 9.03943 7.89419 8.96262 7.8368 8.89648C7.77942 8.83033 7.70957 8.77614 7.63124 8.73699L6.6664 8.25522V6.66668C6.66762 6.57748 6.65093 6.48895 6.61732 6.40633C6.58371 6.3237 6.53386 6.24866 6.47072 6.18564C6.40759 6.12263 6.33245 6.07292 6.24976 6.03947C6.16707 6.00602 6.0785 5.9895 5.98931 5.9909ZM4.99973 14C5.55991 14 5.99973 14.4398 5.99973 15C5.99973 15.5602 5.55991 16 4.99973 16C4.43955 16 3.99973 15.5602 3.99973 15C3.99973 14.4398 4.43955 14 4.99973 14ZM15.6664 14C16.2266 14 16.6664 14.4398 16.6664 15C16.6664 15.5602 16.2266 16 15.6664 16C15.1062 16 14.6664 15.5602 14.6664 15C14.6664 14.4398 15.1062 14 15.6664 14Z" fill="#333333"/>
</g>
<defs>
<clipPath id="clip0_302_4257">
<rect width="20" height="20" fill="white"/>
</clipPath>
</defs>
</svg>
