<svg width="20" height="20" viewBox="0 0 20 20" fill="none" xmlns="http://www.w3.org/2000/svg">
<path d="M5.43984 1.59998C3.54264 1.59998 2 3.14302 2 5.03982V12.2398V12.5601V15.3601C2 17.2551 3.54483 18.8 5.43984 18.8H14.5602C16.4552 18.8 18 17.2551 18 15.3601V12.5601V12.2398V5.03982C18 3.14302 16.4574 1.59998 14.5602 1.59998H5.43984ZM11.4359 5.20857C12.2278 5.2455 13.087 5.40229 14 5.71091C12.4 8.00011 13.2 9.60018 11.2 11.375C9.92 12.4018 8.63891 11.9832 7.87891 11.3984C7.51331 11.8896 7.26531 12.3846 7.19531 12.8586C7.16611 13.057 6.99558 13.2 6.80078 13.2C6.78118 13.2 6.76101 13.1985 6.74141 13.1953C6.54265 13.1658 6.40752 12.9938 6.40781 12.7984C6.49222 12.2654 6.74085 11.6925 7.11094 11.1226C7.18053 11.0217 7.2472 10.9204 7.325 10.8203C7.32407 10.8189 7.32358 10.8178 7.32266 10.8164C7.54722 10.5076 7.80117 10.202 8.08672 9.90701C9.0094 8.95391 10.2036 8.10951 11.3695 7.56248C11.4525 7.52516 11.5203 7.46067 11.5617 7.37964C11.6031 7.29862 11.6156 7.2059 11.5973 7.11678C11.5789 7.02767 11.5307 6.94749 11.4606 6.88947C11.3905 6.83145 11.3027 6.79905 11.2117 6.79763C11.149 6.79652 11.0869 6.81017 11.0305 6.83748C9.7692 7.42924 8.50982 8.32056 7.5125 9.35076C7.22462 9.64813 6.96081 9.95797 6.72266 10.2758C6.43201 10.0868 6.09729 9.69579 6.01016 8.83591C5.83498 7.13584 8.00451 5.04852 11.4359 5.20857ZM2.8 14.7617C3.43146 15.5177 4.37982 16 5.43984 16H14.5602C15.62 16 16.5685 15.5177 17.2 14.7617V15.3601C17.2 16.8227 16.0227 18 14.5602 18H5.43984C3.97726 18 2.8 16.8227 2.8 15.3601V14.7617Z" fill="#333333"/>
</svg>
