<svg width="20" height="21" viewBox="0 0 20 21" fill="none" xmlns="http://www.w3.org/2000/svg">
<path d="M16.4713 5.69533L12.8046 2.02866C12.6793 1.90333 12.5099 1.83333 12.3333 1.83333H4.66659C3.92992 1.83333 3.33325 2.42999 3.33325 3.16666V17.8333C3.33325 18.57 3.92992 19.1667 4.66659 19.1667H15.3333C16.0699 19.1667 16.6666 18.57 16.6666 17.8333V6.16666C16.6666 5.98999 16.5966 5.82066 16.4713 5.69533ZM6.66659 10.5C6.29859 10.5 5.99992 10.2013 5.99992 9.83333C5.99992 9.46533 6.29859 9.16666 6.66659 9.16666C7.03459 9.16666 7.33325 9.46533 7.33325 9.83333C7.33325 10.2013 7.03459 10.5 6.66659 10.5ZM6.66659 13.1667C6.29859 13.1667 5.99992 12.868 5.99992 12.5C5.99992 12.132 6.29859 11.8333 6.66659 11.8333C7.03459 11.8333 7.33325 12.132 7.33325 12.5C7.33325 12.868 7.03459 13.1667 6.66659 13.1667ZM6.66659 15.8333C6.29859 15.8333 5.99992 15.5347 5.99992 15.1667C5.99992 14.7987 6.29859 14.5 6.66659 14.5C7.03459 14.5 7.33325 14.7987 7.33325 15.1667C7.33325 15.5347 7.03459 15.8333 6.66659 15.8333ZM13.3333 15.8333H9.33325C8.96525 15.8333 8.66658 15.5347 8.66658 15.1667C8.66658 14.7987 8.96525 14.5 9.33325 14.5H13.3333C13.7013 14.5 13.9999 14.7987 13.9999 15.1667C13.9999 15.5347 13.7013 15.8333 13.3333 15.8333ZM13.3333 13.1667H9.33325C8.96525 13.1667 8.66658 12.868 8.66658 12.5C8.66658 12.132 8.96525 11.8333 9.33325 11.8333H13.3333C13.7013 11.8333 13.9999 12.132 13.9999 12.5C13.9999 12.868 13.7013 13.1667 13.3333 13.1667ZM13.3333 10.5H9.33325C8.96525 10.5 8.66658 10.2013 8.66658 9.83333C8.66658 9.46533 8.96525 9.16666 9.33325 9.16666H13.3333C13.7013 9.16666 13.9999 9.46533 13.9999 9.83333C13.9999 10.2013 13.7013 10.5 13.3333 10.5ZM12.6666 6.49999C12.2986 6.49999 11.9999 6.20133 11.9999 5.83333V3.10266L15.3973 6.49999H12.6666Z" fill="#333333"/>
</svg>
