<svg width="20" height="21" viewBox="0 0 20 21" fill="none" xmlns="http://www.w3.org/2000/svg">
<path d="M8.66675 2.3335C8.29875 2.3335 8.00008 2.63216 8.00008 3.00016V5.00016V6.3335C8.00008 6.7015 7.70141 7.00016 7.33341 7.00016C6.96541 7.00016 6.66675 6.7015 6.66675 6.3335V4.4012C3.91475 5.66587 2.00008 8.4395 2.00008 11.6668V13.6668H1.66675C1.11475 13.6668 0.666748 14.1148 0.666748 14.6668C0.666748 15.0464 0.880922 15.3738 1.19279 15.5431L1.19019 15.5444C1.19019 15.5444 3.33341 17.0002 5.33341 17.0002H14.6667C16.6667 17.0002 18.81 15.5444 18.81 15.5444L18.8074 15.5431C19.1192 15.3738 19.3334 15.0464 19.3334 14.6668C19.3334 14.1148 18.8854 13.6668 18.3334 13.6668H5.33341C4.96541 13.6668 4.66675 13.3682 4.66675 13.0002C4.66675 12.6322 4.96541 12.3335 5.33341 12.3335H18.0001V11.6668C18.0001 8.4395 16.0854 5.66587 13.3334 4.4012V6.3335C13.3334 6.7015 13.0347 7.00016 12.6667 7.00016C12.2987 7.00016 12.0001 6.7015 12.0001 6.3335V3.92855V3.00016C12.0001 2.63216 11.7014 2.3335 11.3334 2.3335H8.66675Z" fill="#333333"/>
</svg>
