<svg width="20" height="20" viewBox="0 0 20 20" fill="none" xmlns="http://www.w3.org/2000/svg">
<g clip-path="url(#clip0_351_631)">
<path d="M8.3335 7.49992C8.3335 7.01077 8.51594 6.69795 8.75546 6.49472C9.01309 6.27612 9.3863 6.14575 9.79183 6.14575C10.1974 6.14575 10.5706 6.27612 10.8282 6.49472C11.0677 6.69795 11.2502 7.01077 11.2502 7.49992C11.2502 7.86422 11.1643 8.06648 11.0646 8.21605C10.9483 8.39056 10.7952 8.52818 10.5363 8.7609L10.4844 8.80759C10.218 9.04729 9.86764 9.37133 9.60047 9.84333C9.32514 10.3297 9.16683 10.9175 9.16683 11.6666C9.16683 12.1268 9.53993 12.4999 10.0002 12.4999C10.4604 12.4999 10.8335 12.1268 10.8335 11.6666C10.8335 11.1657 10.9356 10.868 11.0509 10.6643C11.1744 10.4462 11.3448 10.2755 11.5993 10.0464C11.6222 10.0258 11.6464 10.0043 11.6715 9.98182C11.8993 9.77883 12.2112 9.50079 12.4514 9.14056C12.7423 8.70419 12.9168 8.17728 12.9168 7.49992C12.9168 6.53073 12.5264 5.74981 11.9065 5.22387C11.3048 4.7133 10.5321 4.47909 9.79183 4.47909C9.05153 4.47909 8.2789 4.7133 7.67716 5.22387C7.0573 5.74981 6.66683 6.53073 6.66683 7.49992C6.66683 7.96016 7.03993 8.33325 7.50016 8.33325C7.9604 8.33325 8.3335 7.96016 8.3335 7.49992Z" fill="black"/>
<path d="M10.6251 15.5597C10.9347 15.2191 10.9096 14.6921 10.5691 14.3825C10.2285 14.0729 9.70149 14.098 9.39189 14.4385L9.38356 14.4477C9.07396 14.7882 9.09905 15.3153 9.43959 15.6249C9.78013 15.9345 10.3072 15.9094 10.6168 15.5688L10.6251 15.5597Z" fill="black"/>
<path fill-rule="evenodd" clip-rule="evenodd" d="M10.0002 0.833252C4.93743 0.833252 0.833496 4.93718 0.833496 9.99992C0.833496 15.0627 4.93743 19.1666 10.0002 19.1666C15.0629 19.1666 19.1668 15.0627 19.1668 9.99992C19.1668 4.93718 15.0629 0.833252 10.0002 0.833252ZM2.50016 9.99992C2.50016 5.85766 5.8579 2.49992 10.0002 2.49992C14.1424 2.49992 17.5002 5.85766 17.5002 9.99992C17.5002 14.1422 14.1424 17.4999 10.0002 17.4999C5.8579 17.4999 2.50016 14.1422 2.50016 9.99992Z" fill="black"/>
</g>
<defs>
<clipPath id="clip0_351_631">
<rect width="20" height="20" fill="white"/>
</clipPath>
</defs>
</svg>
