<svg width="20" height="21" viewBox="0 0 20 21" fill="none" xmlns="http://www.w3.org/2000/svg">
<path d="M17.6 4.14545H2.40005C1.51724 4.14545 0.800049 4.86263 0.800049 5.74545V15.3454C0.800049 16.2283 1.51724 16.9454 2.40005 16.9454H17.6C18.4829 16.9454 19.2 16.2283 19.2 15.3454V5.74545C19.2 4.86263 18.4829 4.14545 17.6 4.14545ZM3.20005 14.1454C3.29692 12.5345 5.3688 12.7689 5.67974 11.9345C5.70474 11.6486 5.67974 11.4486 5.67974 11.1876C5.55005 11.1189 5.18755 10.7517 5.1313 10.3423C5.1313 10.3423 4.83911 10.2033 4.82349 9.76263C4.81411 9.52982 4.97817 9.3642 4.97817 9.3642C4.67349 8.19076 4.80474 6.97357 6.37505 6.94545C6.76724 6.94545 7.06255 7.13451 7.17974 7.34232C8.27192 7.34232 7.98911 8.86576 7.82349 9.3642C7.88442 9.42513 7.95942 9.59388 7.95942 9.82201C7.95942 10.1486 7.65005 10.3423 7.65005 10.3423C7.59224 10.7579 7.29849 11.1017 7.12036 11.1876C7.12036 11.4486 7.0938 11.6486 7.12036 11.9345C7.4313 12.7689 9.50317 12.5345 9.60005 14.1454H3.20005ZM16.4 12.9454H11.6C11.3782 12.9454 11.2 12.7673 11.2 12.5454C11.2 12.3236 11.3782 12.1454 11.6 12.1454H16.4C16.6219 12.1454 16.8 12.3236 16.8 12.5454C16.8 12.7673 16.6219 12.9454 16.4 12.9454ZM16.4 10.9454H11.6C11.3782 10.9454 11.2 10.7658 11.2 10.5454C11.2 10.3251 11.3782 10.1454 11.6 10.1454H16.4C16.6219 10.1454 16.8 10.3251 16.8 10.5454C16.8 10.7658 16.6219 10.9454 16.4 10.9454ZM16.4 8.94545H11.6C11.3782 8.94545 11.2 8.76576 11.2 8.54545C11.2 8.32513 11.3782 8.14545 11.6 8.14545H16.4C16.6219 8.14545 16.8 8.32513 16.8 8.54545C16.8 8.76576 16.6219 8.94545 16.4 8.94545Z" fill="#333333"/>
</svg>
