<svg width="20" height="21" viewBox="0 0 20 21" fill="none" xmlns="http://www.w3.org/2000/svg">
<path d="M6.5625 3.98297C5.7475 3.98297 5.05488 4.50578 4.79675 5.23297H13.75C15.3009 5.23297 16.5625 6.49485 16.5625 8.04547V14.8112C17.2897 14.5534 17.8125 13.8605 17.8125 13.0455V5.85797C17.8125 4.8236 16.9719 3.98297 15.9375 3.98297H6.5625ZM4.375 6.17047C3.34094 6.17047 2.5 7.01141 2.5 8.04547V15.233C2.5 16.267 3.34094 17.108 4.375 17.108H13.75C14.7841 17.108 15.625 16.267 15.625 15.233V8.04547C15.625 7.01141 14.7841 6.17047 13.75 6.17047H4.375ZM7.63489 9.64703C8.05551 9.64703 8.39661 9.98781 8.39661 10.4088C8.39661 10.8297 8.05551 11.1705 7.63489 11.1705C7.21426 11.1705 6.87317 10.8297 6.87317 10.4088C6.87317 9.98781 7.21426 9.64703 7.63489 9.64703ZM11.8408 11.0881C12.1473 11.0877 12.4542 11.1968 12.6978 11.4158L14.375 12.924V15.233C14.375 15.5777 14.0947 15.858 13.75 15.858H10.0604H6.07056H4.375C4.03031 15.858 3.75 15.5777 3.75 15.233V13.2872L4.53369 12.6121C5.03025 12.1843 5.76408 12.1831 6.26221 12.6091L8.01086 14.105L10.9845 11.4183C11.2276 11.1986 11.5343 11.0885 11.8408 11.0881Z" fill="#333333"/>
</svg>
