<svg width="20" height="20" viewBox="0 0 20 20" fill="none" xmlns="http://www.w3.org/2000/svg">
<path d="M10 1.75C14.5562 1.75 18.25 5.44375 18.25 10C18.25 14.5562 14.5562 18.25 10 18.25C5.44375 18.25 1.75 14.5562 1.75 10C1.75 5.44375 5.44375 1.75 10 1.75ZM10.75 13.75C10.75 13.5246 10.75 10.2254 10.75 10C10.75 9.586 10.4144 9.25 10 9.25C9.58562 9.25 9.25 9.586 9.25 10C9.25 10.2254 9.25 13.5246 9.25 13.75C9.25 14.164 9.58562 14.5 10 14.5C10.4144 14.5 10.75 14.164 10.75 13.75ZM10 8.125C10.6214 8.125 11.125 7.62137 11.125 7C11.125 6.37863 10.6214 5.875 10 5.875C9.37863 5.875 8.875 6.37863 8.875 7C8.875 7.62137 9.37863 8.125 10 8.125Z" fill="#333333"/>
</svg>
