<svg width="20" height="21" viewBox="0 0 20 21" fill="none" xmlns="http://www.w3.org/2000/svg">
<path d="M10.0001 1.66699C7.43052 1.66699 5.33341 3.7641 5.33341 6.33366V7.66699H4.00008C3.26341 7.66699 2.66675 8.26366 2.66675 9.00033V17.0003C2.66675 17.737 3.26341 18.3337 4.00008 18.3337H16.0001C16.7367 18.3337 17.3334 17.737 17.3334 17.0003V9.00033C17.3334 8.26366 16.7367 7.66699 16.0001 7.66699H14.6667V6.33366C14.6667 3.84805 12.6911 1.84604 10.2371 1.71517C10.1617 1.6848 10.0814 1.66847 10.0001 1.66699ZM10.0001 3.00033C11.8492 3.00033 13.3334 4.48455 13.3334 6.33366V7.66699H6.66675V6.33366C6.66675 4.48455 8.15097 3.00033 10.0001 3.00033Z" fill="#333333"/>
</svg>
