<svg width="20" height="21" viewBox="0 0 20 21" fill="none" xmlns="http://www.w3.org/2000/svg">
<path d="M19.9827 7.16482C19.9389 7.01951 19.8171 6.9117 19.6671 6.8867L16.1186 6.28357L19.8733 2.7742C19.9842 2.67107 20.0264 2.5117 19.9827 2.36638C19.9389 2.22107 19.8171 2.11326 19.6671 2.08826L9.37018 0.33826C9.26081 0.321072 9.1483 0.347636 9.06081 0.414824L0.156117 7.23045C0.0358054 7.3242 -0.0220066 7.47732 0.00768139 7.62732C0.0389334 7.77732 0.151429 7.89764 0.299869 7.93514L4.19206 8.93983L0.156121 12.0304C0.0358094 12.1226 -0.0220026 12.2773 0.00768539 12.4273C0.0389374 12.5773 0.151433 12.6961 0.299873 12.7351L4.19206 13.7398L0.156125 16.8289C0.0358134 16.9211 -0.0219986 17.0758 0.00768939 17.2258C0.0389414 17.3758 0.151437 17.4945 0.299877 17.5336L11.0968 20.3211C11.1311 20.3289 11.1639 20.3336 11.1968 20.3336C11.2968 20.3336 11.3952 20.2961 11.4702 20.2258L19.8733 12.3711C19.9842 12.268 20.0264 12.1101 19.9827 11.9633C19.9389 11.8195 19.8171 11.7101 19.6671 11.6851L16.1186 11.082L19.8733 7.57264C19.9843 7.46952 20.0264 7.31013 19.9827 7.16482ZM18.7374 12.3398L11.0858 19.4914L1.29518 16.9633L5.08111 14.0664C5.1108 14.0445 5.12955 14.0148 5.15142 13.9867L11.0967 15.5226C11.1311 15.5304 11.1639 15.5336 11.1967 15.5336C11.2967 15.5336 11.3952 15.4961 11.4702 15.4258L15.3827 11.7695L18.7374 12.3398ZM11.0842 14.6929L1.29518 12.1648L5.17643 9.19451L11.0967 10.7226C11.1311 10.7304 11.1639 10.7351 11.1967 10.7351C11.2967 10.7351 11.3952 10.6976 11.4702 10.6273L15.3827 6.96951L18.7374 7.53982L11.0842 14.6929Z" fill="#333333"/>
</svg>
