<svg width="20" height="21" viewBox="0 0 20 21" fill="none" xmlns="http://www.w3.org/2000/svg">
<path d="M17.075 0.333374C16.2094 0.333374 15.5625 1.05103 15.5625 2.00489C15.5625 2.2865 15.6813 2.65896 15.8875 3.26942C16.3313 4.58483 17.1625 7.03032 17.1625 10.3334C17.1625 13.6201 16.3656 15.9566 15.8875 17.3537C15.6797 17.9642 15.5406 18.3675 15.525 18.7055C15.525 19.3614 15.9906 20.3334 17 20.3334C17.5047 20.3334 17.9516 20.0336 18.225 19.5049C18.9422 18.115 20 14.2505 20 10.377C20 6.24907 18.9172 2.58083 18.2 1.14733C17.9875 0.651325 17.5406 0.333374 17.075 0.333374ZM13.325 2.28105C12.4594 2.28105 11.8 3.01324 11.8 3.9671C11.8 4.26869 11.9187 4.61571 12.1 5.14442C12.4516 6.16368 13.0375 7.86426 13.0375 10.3334C13.0375 13.0369 12.4672 14.5594 12.0875 15.5659C11.9078 16.0438 11.7781 16.3981 11.7625 16.7578C11.7625 17.4137 12.2281 18.3857 13.2375 18.3857C13.7422 18.3857 14.1906 18.0696 14.4625 17.5427C15.1172 16.2763 15.875 13.6419 15.875 10.377C15.875 7.62807 15.3359 4.89369 14.4375 3.095C14.225 2.60082 13.7906 2.28105 13.325 2.28105ZM8.9625 4.28686C8.18594 4.28686 7.725 4.91005 7.725 5.95837C7.725 6.35263 7.86094 6.81412 8.0375 7.39733C8.27188 8.17131 8.5625 9.13061 8.5625 10.1444C8.5625 10.7567 8.48438 11.2255 8.4125 11.4962C6.01563 9.32865 2.49375 6.12916 2.325 5.95837C2.30625 5.93657 2.28438 5.91659 2.2625 5.90023C2.07969 5.75852 1.92031 5.68221 1.6 5.68221C1.11875 5.68221 0 6.11644 0 10.188C0 13.789 0.996875 15.0717 1.925 15.0717C2.67656 15.0717 3.125 14.405 3.125 13.2694C3.125 12.9115 3.02188 12.2502 2.925 11.6124C2.87344 11.2763 2.8 10.8167 2.8 10.7113C2.8 10.6768 2.79844 10.6368 2.8 10.6095C2.84063 10.6422 2.89375 10.6877 2.95 10.7404C3.15 10.9402 4.15781 11.8377 6.9875 14.3305C7.68438 14.9446 8.22969 15.4242 8.3375 15.5223C8.50625 15.7076 8.82344 15.9148 9.4 15.9148C10.8234 15.9148 11.4375 12.2193 11.4375 10.3334C11.4375 7.53723 10.3594 4.28686 8.9625 4.28686Z" fill="#333333"/>
</svg>
