<svg width="20" height="20" viewBox="0 0 20 20" fill="none" xmlns="http://www.w3.org/2000/svg">
<g clip-path="url(#clip0_302_4230)">
<path d="M5.99935 0.666656C5.82254 0.666656 5.65297 0.736894 5.52794 0.861919C5.40292 0.986943 5.33268 1.15651 5.33268 1.33332C5.33268 1.51013 5.40292 1.6797 5.52794 1.80473C5.65297 1.92975 5.82254 1.99999 5.99935 1.99999C6.17616 1.99999 6.34573 1.92975 6.47075 1.80473C6.59578 1.6797 6.66602 1.51013 6.66602 1.33332C6.66602 1.15651 6.59578 0.986943 6.47075 0.861919C6.34573 0.736894 6.17616 0.666656 5.99935 0.666656ZM8.66602 0.666656C8.4892 0.666656 8.31963 0.736894 8.19461 0.861919C8.06959 0.986943 7.99935 1.15651 7.99935 1.33332C7.99935 1.51013 8.06959 1.6797 8.19461 1.80473C8.31963 1.92975 8.4892 1.99999 8.66602 1.99999C8.84283 1.99999 9.01239 1.92975 9.13742 1.80473C9.26244 1.6797 9.33268 1.51013 9.33268 1.33332C9.33268 1.15651 9.26244 0.986943 9.13742 0.861919C9.01239 0.736894 8.84283 0.666656 8.66602 0.666656ZM11.3327 0.666656C11.1559 0.666656 10.9863 0.736894 10.8613 0.861919C10.7363 0.986943 10.666 1.15651 10.666 1.33332C10.666 1.51013 10.7363 1.6797 10.8613 1.80473C10.9863 1.92975 11.1559 1.99999 11.3327 1.99999C11.5095 1.99999 11.6791 1.92975 11.8041 1.80473C11.9291 1.6797 11.9993 1.51013 11.9993 1.33332C11.9993 1.15651 11.9291 0.986943 11.8041 0.861919C11.6791 0.736894 11.5095 0.666656 11.3327 0.666656ZM13.9993 0.666656C13.8225 0.666656 13.653 0.736894 13.5279 0.861919C13.4029 0.986943 13.3327 1.15651 13.3327 1.33332C13.3327 1.51013 13.4029 1.6797 13.5279 1.80473C13.653 1.92975 13.8225 1.99999 13.9993 1.99999C14.1762 1.99999 14.3457 1.92975 14.4708 1.80473C14.5958 1.6797 14.666 1.51013 14.666 1.33332C14.666 1.15651 14.5958 0.986943 14.4708 0.861919C14.3457 0.736894 14.1762 0.666656 13.9993 0.666656ZM4.66602 3.33332C3.92935 3.33332 3.33268 3.92999 3.33268 4.66666V15.3333C3.33268 16.07 3.92935 16.6667 4.66602 16.6667H15.3327C16.0693 16.6667 16.666 16.07 16.666 15.3333V4.66666C16.666 3.92999 16.0693 3.33332 15.3327 3.33332H4.66602ZM1.33268 5.33332C1.15587 5.33332 0.986302 5.40356 0.861278 5.52858C0.736253 5.65361 0.666016 5.82318 0.666016 5.99999C0.666016 6.1768 0.736253 6.34637 0.861278 6.47139C0.986302 6.59642 1.15587 6.66666 1.33268 6.66666C1.50949 6.66666 1.67906 6.59642 1.80409 6.47139C1.92911 6.34637 1.99935 6.1768 1.99935 5.99999C1.99935 5.82318 1.92911 5.65361 1.80409 5.52858C1.67906 5.40356 1.50949 5.33332 1.33268 5.33332ZM18.666 5.33332C18.4892 5.33332 18.3196 5.40356 18.1946 5.52858C18.0696 5.65361 17.9993 5.82318 17.9993 5.99999C17.9993 6.1768 18.0696 6.34637 18.1946 6.47139C18.3196 6.59642 18.4892 6.66666 18.666 6.66666C18.8428 6.66666 19.0124 6.59642 19.1374 6.47139C19.2624 6.34637 19.3327 6.1768 19.3327 5.99999C19.3327 5.82318 19.2624 5.65361 19.1374 5.52858C19.0124 5.40356 18.8428 5.33332 18.666 5.33332ZM6.66602 6.66666H13.3327V13.3333H6.66602V6.66666ZM1.33268 7.99999C1.15587 7.99999 0.986302 8.07023 0.861278 8.19525C0.736253 8.32028 0.666016 8.48984 0.666016 8.66666C0.666016 8.84347 0.736253 9.01304 0.861278 9.13806C0.986302 9.26308 1.15587 9.33332 1.33268 9.33332C1.50949 9.33332 1.67906 9.26308 1.80409 9.13806C1.92911 9.01304 1.99935 8.84347 1.99935 8.66666C1.99935 8.48984 1.92911 8.32028 1.80409 8.19525C1.67906 8.07023 1.50949 7.99999 1.33268 7.99999ZM18.666 7.99999C18.4892 7.99999 18.3196 8.07023 18.1946 8.19525C18.0696 8.32028 17.9993 8.48984 17.9993 8.66666C17.9993 8.84347 18.0696 9.01304 18.1946 9.13806C18.3196 9.26308 18.4892 9.33332 18.666 9.33332C18.8428 9.33332 19.0124 9.26308 19.1374 9.13806C19.2624 9.01304 19.3327 8.84347 19.3327 8.66666C19.3327 8.48984 19.2624 8.32028 19.1374 8.19525C19.0124 8.07023 18.8428 7.99999 18.666 7.99999ZM1.33268 10.6667C1.15587 10.6667 0.986302 10.7369 0.861278 10.8619C0.736253 10.9869 0.666016 11.1565 0.666016 11.3333C0.666016 11.5101 0.736253 11.6797 0.861278 11.8047C0.986302 11.9298 1.15587 12 1.33268 12C1.50949 12 1.67906 11.9298 1.80409 11.8047C1.92911 11.6797 1.99935 11.5101 1.99935 11.3333C1.99935 11.1565 1.92911 10.9869 1.80409 10.8619C1.67906 10.7369 1.50949 10.6667 1.33268 10.6667ZM18.666 10.6667C18.4892 10.6667 18.3196 10.7369 18.1946 10.8619C18.0696 10.9869 17.9993 11.1565 17.9993 11.3333C17.9993 11.5101 18.0696 11.6797 18.1946 11.8047C18.3196 11.9298 18.4892 12 18.666 12C18.8428 12 19.0124 11.9298 19.1374 11.8047C19.2624 11.6797 19.3327 11.5101 19.3327 11.3333C19.3327 11.1565 19.2624 10.9869 19.1374 10.8619C19.0124 10.7369 18.8428 10.6667 18.666 10.6667ZM1.33268 13.3333C1.15587 13.3333 0.986302 13.4036 0.861278 13.5286C0.736253 13.6536 0.666016 13.8232 0.666016 14C0.666016 14.1768 0.736253 14.3464 0.861278 14.4714C0.986302 14.5964 1.15587 14.6667 1.33268 14.6667C1.50949 14.6667 1.67906 14.5964 1.80409 14.4714C1.92911 14.3464 1.99935 14.1768 1.99935 14C1.99935 13.8232 1.92911 13.6536 1.80409 13.5286C1.67906 13.4036 1.50949 13.3333 1.33268 13.3333ZM18.666 13.3333C18.4892 13.3333 18.3196 13.4036 18.1946 13.5286C18.0696 13.6536 17.9993 13.8232 17.9993 14C17.9993 14.1768 18.0696 14.3464 18.1946 14.4714C18.3196 14.5964 18.4892 14.6667 18.666 14.6667C18.8428 14.6667 19.0124 14.5964 19.1374 14.4714C19.2624 14.3464 19.3327 14.1768 19.3327 14C19.3327 13.8232 19.2624 13.6536 19.1374 13.5286C19.0124 13.4036 18.8428 13.3333 18.666 13.3333ZM5.99935 18C5.82254 18 5.65297 18.0702 5.52794 18.1952C5.40292 18.3203 5.33268 18.4898 5.33268 18.6667C5.33268 18.8435 5.40292 19.013 5.52794 19.1381C5.65297 19.2631 5.82254 19.3333 5.99935 19.3333C6.17616 19.3333 6.34573 19.2631 6.47075 19.1381C6.59578 19.013 6.66602 18.8435 6.66602 18.6667C6.66602 18.4898 6.59578 18.3203 6.47075 18.1952C6.34573 18.0702 6.17616 18 5.99935 18ZM8.66602 18C8.4892 18 8.31963 18.0702 8.19461 18.1952C8.06959 18.3203 7.99935 18.4898 7.99935 18.6667C7.99935 18.8435 8.06959 19.013 8.19461 19.1381C8.31963 19.2631 8.4892 19.3333 8.66602 19.3333C8.84283 19.3333 9.01239 19.2631 9.13742 19.1381C9.26244 19.013 9.33268 18.8435 9.33268 18.6667C9.33268 18.4898 9.26244 18.3203 9.13742 18.1952C9.01239 18.0702 8.84283 18 8.66602 18ZM11.3327 18C11.1559 18 10.9863 18.0702 10.8613 18.1952C10.7363 18.3203 10.666 18.4898 10.666 18.6667C10.666 18.8435 10.7363 19.013 10.8613 19.1381C10.9863 19.2631 11.1559 19.3333 11.3327 19.3333C11.5095 19.3333 11.6791 19.2631 11.8041 19.1381C11.9291 19.013 11.9993 18.8435 11.9993 18.6667C11.9993 18.4898 11.9291 18.3203 11.8041 18.1952C11.6791 18.0702 11.5095 18 11.3327 18ZM13.9993 18C13.8225 18 13.653 18.0702 13.5279 18.1952C13.4029 18.3203 13.3327 18.4898 13.3327 18.6667C13.3327 18.8435 13.4029 19.013 13.5279 19.1381C13.653 19.2631 13.8225 19.3333 13.9993 19.3333C14.1762 19.3333 14.3457 19.2631 14.4708 19.1381C14.5958 19.013 14.666 18.8435 14.666 18.6667C14.666 18.4898 14.5958 18.3203 14.4708 18.1952C14.3457 18.0702 14.1762 18 13.9993 18Z" fill="#333333"/>
</g>
<defs>
<clipPath id="clip0_302_4230">
<rect width="20" height="20" fill="white"/>
</clipPath>
</defs>
</svg>
