<svg width="20" height="21" viewBox="0 0 20 21" fill="none" xmlns="http://www.w3.org/2000/svg">
<path d="M1.23726 0.333374C0.554653 0.333374 0 1.0048 0 1.83111V6.64916H20V1.83111C20 1.0048 19.4453 0.333374 18.7627 0.333374H1.23726ZM2.6087 2.43864C3.0887 2.43864 3.47826 2.90969 3.47826 3.49127C3.47826 4.07232 3.0887 4.5439 2.6087 4.5439C2.1287 4.5439 1.73913 4.07232 1.73913 3.49127C1.73913 2.90969 2.1287 2.43864 2.6087 2.43864ZM5.21739 2.43864C5.69739 2.43864 6.08696 2.90969 6.08696 3.49127C6.08696 4.07232 5.69739 4.5439 5.21739 4.5439C4.73739 4.5439 4.34783 4.07232 4.34783 3.49127C4.34783 2.90969 4.73739 2.43864 5.21739 2.43864ZM7.3913 2.43864H17.8261V4.5439H7.3913V2.43864ZM0 7.7018V19.8071C0 20.0981 0.194348 20.3334 0.434783 20.3334H19.5652C19.8057 20.3334 20 20.0981 20 19.8071V7.7018H0Z" fill="black"/>
</svg>
