<svg width="20" height="21" viewBox="0 0 20 21" fill="none" xmlns="http://www.w3.org/2000/svg">
<path d="M4.00008 3C3.26341 3 2.66675 3.59667 2.66675 4.33333V16.3333C2.66675 17.07 3.26341 17.6667 4.00008 17.6667H6.66675C7.40341 17.6667 8.00008 17.07 8.00008 16.3333V4.33333C8.00008 3.59667 7.40341 3 6.66675 3H4.00008ZM12.7813 5C12.4402 5 12.099 5.13029 11.8386 5.39062L9.33341 7.89583V15.4375L15.6095 9.16146C16.1301 8.64079 16.1301 7.79671 15.6095 7.27604L13.724 5.39062C13.4637 5.13029 13.1225 5 12.7813 5ZM14.323 12.3333L8.98966 17.6667H16.0001C16.7367 17.6667 17.3334 17.07 17.3334 16.3333V13.6667C17.3334 12.93 16.7367 12.3333 16.0001 12.3333H14.323ZM5.33341 15C5.70141 15 6.00008 15.2987 6.00008 15.6667C6.00008 16.0347 5.70141 16.3333 5.33341 16.3333C4.96541 16.3333 4.66675 16.0347 4.66675 15.6667C4.66675 15.2987 4.96541 15 5.33341 15Z" fill="#333333"/>
</svg>
