<svg width="20" height="20" viewBox="0 0 20 20" fill="none" xmlns="http://www.w3.org/2000/svg">
<g clip-path="url(#clip0_302_4221)">
<path d="M18.6304 1.3703C18.2507 0.990613 17.7523 0.799988 17.2538 0.799988C16.7554 0.799988 16.257 0.990613 15.8773 1.3703C15.8773 1.3703 15.8491 1.39686 15.8132 1.43436C15.8101 1.43749 15.8054 1.43905 15.8023 1.44218L1.72102 15.5219C1.67258 15.5719 1.63665 15.6328 1.6179 15.7016L0.814771 18.6969C0.777271 18.8344 0.816333 18.9812 0.917896 19.0828C0.994458 19.1594 1.09602 19.2 1.20071 19.2C1.23508 19.2 1.26946 19.1953 1.30383 19.1859L4.29915 18.3828C4.3679 18.364 4.42883 18.3281 4.47883 18.2781L18.5585 4.19999C18.5632 4.1953 18.5648 4.18905 18.5679 4.18436C18.6038 4.14843 18.6288 4.12343 18.6288 4.12343C19.3913 3.36249 19.3913 2.12968 18.6304 1.3703ZM18.0648 1.93593C18.5116 2.3828 18.5116 3.11093 18.0648 3.5578C17.932 3.68905 17.8195 3.80311 17.7226 3.89999L16.1007 2.27811C16.2851 2.09374 16.4429 1.93593 16.4429 1.93593C16.6585 1.71874 16.9476 1.59999 17.2538 1.59999C17.5601 1.59999 17.8476 1.7203 18.0648 1.93593ZM2.2429 16.4609L3.53977 17.7578L1.76633 18.2344L2.2429 16.4609Z" fill="#333333"/>
</g>
<defs>
<clipPath id="clip0_302_4221">
<rect width="20" height="20" fill="white"/>
</clipPath>
</defs>
</svg>
