<svg width="20" height="21" viewBox="0 0 20 21" fill="none" xmlns="http://www.w3.org/2000/svg">
<g clip-path="url(#clip0_275_2066)">
<path d="M13.6 0.733398H6.40005C5.51765 0.733398 4.80005 1.451 4.80005 2.3334V18.3334C4.80005 19.2158 5.51765 19.9334 6.40005 19.9334H13.6C14.4824 19.9334 15.2 19.2158 15.2 18.3334V2.3334C15.2 1.451 14.4824 0.733398 13.6 0.733398ZM11 3.1334C10.8456 3.1334 9.15445 3.1334 9.00005 3.1334C8.66885 3.1334 8.40005 2.8646 8.40005 2.5334C8.40005 2.2022 8.66885 1.9334 9.00005 1.9334C9.15445 1.9334 10.8456 1.9334 11 1.9334C11.3312 1.9334 11.6 2.2022 11.6 2.5334C11.6 2.8646 11.3312 3.1334 11 3.1334Z" fill="#333333"/>
</g>
<defs>
<clipPath id="clip0_275_2066">
<rect width="20" height="20" fill="white" transform="translate(0 0.333496)"/>
</clipPath>
</defs>
</svg>
