<svg width="20" height="20" viewBox="0 0 20 20" fill="none" xmlns="http://www.w3.org/2000/svg">
<path d="M14.7478 12.6025L10.9618 16.25H5.33028C4.3406 16.25 3.63872 15.2622 3.98341 14.3328C4.79622 12.1419 7.18028 10.6694 9.91622 10.6694C11.845 10.6697 13.5959 11.4031 14.7478 12.6025ZM12.0534 17.4991C11.9487 17.54 11.8306 17.4219 11.8759 17.3172L12.2853 16.4166L16 12.6975L16.7003 13.3934L12.9859 17.1081L12.0534 17.4991ZM17.0275 13.0613L16.3343 12.3634L16.6868 12.0153C16.8553 11.8469 17.1143 11.8244 17.269 11.9791L17.3872 12.1019C17.56 12.2747 17.5462 12.525 17.3734 12.7069L17.0275 13.0613ZM10.0006 9.6875C8.27747 9.6875 6.8756 8.21562 6.8756 6.40625C6.8756 4.59687 8.27747 3.125 10.0006 3.125C11.7237 3.125 13.1256 4.59687 13.1256 6.40625C13.1256 8.21562 11.7237 9.6875 10.0006 9.6875Z" fill="#333333"/>
</svg>
