<svg width="20" height="20" viewBox="0 0 20 20" fill="none" xmlns="http://www.w3.org/2000/svg">
<path d="M5.00065 3.33331C4.0801 3.33331 3.33398 4.07942 3.33398 4.99998V7.49998C3.33398 8.42053 4.0801 9.16665 5.00065 9.16665H7.50065C8.42121 9.16665 9.16732 8.42053 9.16732 7.49998V4.99998C9.16732 4.07942 8.42121 3.33331 7.50065 3.33331H5.00065ZM12.5007 3.33331C11.5801 3.33331 10.834 4.07942 10.834 4.99998V7.49998C10.834 8.42053 11.5801 9.16665 12.5007 9.16665H15.0007C15.9212 9.16665 16.6673 8.42053 16.6673 7.49998V4.99998C16.6673 4.07942 15.9212 3.33331 15.0007 3.33331H12.5007ZM5.27843 4.99998H7.22287C7.37621 4.99998 7.50065 5.12442 7.50065 5.27776V7.2222C7.50065 7.37553 7.37621 7.49998 7.22287 7.49998H5.27843C5.1251 7.49998 5.00065 7.37553 5.00065 7.2222V5.27776C5.00065 5.12442 5.1251 4.99998 5.27843 4.99998ZM12.7784 4.99998H14.7229C14.8762 4.99998 15.0007 5.12442 15.0007 5.27776V7.2222C15.0007 7.37553 14.8762 7.49998 14.7229 7.49998H12.7784C12.6251 7.49998 12.5007 7.37553 12.5007 7.2222V5.27776C12.5007 5.12442 12.6251 4.99998 12.7784 4.99998ZM5.55621 5.55554V6.94442H6.9451V5.55554H5.55621ZM13.0562 5.55554V6.94442H14.4451V5.55554H13.0562ZM5.00065 10.8333C4.0801 10.8333 3.33398 11.5794 3.33398 12.5V15C3.33398 15.9205 4.0801 16.6666 5.00065 16.6666H7.50065C8.42121 16.6666 9.16732 15.9205 9.16732 15V12.5C9.16732 11.5794 8.42121 10.8333 7.50065 10.8333H5.00065ZM10.834 10.8333V12.7778H12.7784V10.8333H10.834ZM12.7784 12.7778V14.7222H14.7229V12.7778H12.7784ZM14.7229 12.7778H16.6673V10.8333H14.7229V12.7778ZM14.7229 14.7222V16.6666H16.6673V14.7222H14.7229ZM12.7784 14.7222H10.834V16.6666H12.7784V14.7222ZM5.27843 12.5H7.22287C7.37621 12.5 7.50065 12.6244 7.50065 12.7778V14.7222C7.50065 14.8755 7.37621 15 7.22287 15H5.27843C5.1251 15 5.00065 14.8755 5.00065 14.7222V12.7778C5.00065 12.6244 5.1251 12.5 5.27843 12.5ZM5.55621 13.0555V14.4444H6.9451V13.0555H5.55621Z" fill="#333333"/>
</svg>
