<svg width="20" height="20" viewBox="0 0 20 20" fill="none" xmlns="http://www.w3.org/2000/svg">
<path d="M10 3.125C13.7969 3.125 16.875 6.20312 16.875 10C16.875 13.7969 13.7969 16.875 10 16.875C6.20312 16.875 3.125 13.7969 3.125 10C3.125 6.20312 6.20312 3.125 10 3.125ZM9.8425 13.4397C10.3325 13.4397 10.6256 13.0563 10.6256 12.6903C10.6256 12.3244 10.3219 11.9409 9.8425 11.9409C9.36312 11.9409 9.05906 12.3463 9.05906 12.6903C9.05906 13.0344 9.3525 13.4397 9.8425 13.4397ZM10.4725 10.8088C10.4725 9.7725 12.2859 9.87813 12.2859 8.22C12.2859 7.3875 11.5222 6.50906 10.0809 6.50906C8.95937 6.50906 7.85875 7.09687 7.85875 7.98187C7.85875 8.14656 7.96156 8.49281 8.37812 8.49281C8.60469 8.49281 8.75344 8.40094 8.88094 8.27406C9.16594 7.99031 9.34281 7.53062 10.0384 7.53062C10.3166 7.53062 10.9578 7.67156 10.9578 8.33938C10.9578 9.34938 9.255 9.30969 9.255 10.7487C9.255 11.1991 9.45187 11.3959 9.85938 11.3959C10.505 11.3962 10.4725 10.8675 10.4725 10.8088Z" fill="black"/>
</svg>
