<svg width="20" height="20" viewBox="0 0 20 20" fill="none" xmlns="http://www.w3.org/2000/svg">
<path d="M10.0162 2.76099C9.29396 2.76099 8.64612 3.13371 8.28278 3.75871L7.06913 5.84747C6.83774 6.24552 6.97301 6.7554 7.37078 6.98679C7.76912 7.21846 8.279 7.08292 8.51011 6.68514L9.7243 4.59638C9.80958 4.45027 9.94448 4.42765 10.0178 4.42765C10.0909 4.42793 10.2255 4.45051 10.3102 4.59801L11.9677 7.48755L11.5613 7.72084C11.306 7.86751 11.1635 8.13596 11.1908 8.42179C11.2169 8.69652 11.397 8.92369 11.6601 9.01424L13.5302 9.65823C13.736 9.72045 13.9508 9.6894 14.1394 9.59801C14.3333 9.50412 14.4572 9.31045 14.4986 9.10267L14.8876 7.16257C14.9423 6.88979 14.837 6.62056 14.6131 6.45945C14.3803 6.29167 14.0768 6.27806 13.8204 6.42472L13.4135 6.65801L11.7561 3.76847C11.3953 3.13986 10.7415 2.76321 10.0162 2.76099ZM6.72896 7.45988C6.62518 7.44922 6.52 7.46057 6.41972 7.4946L4.57456 8.12069C4.32262 8.20624 4.12114 8.41618 4.08031 8.67895C4.03364 8.98007 4.17524 9.26859 4.44218 9.42331L4.84637 9.65769L3.17536 12.5326C2.81092 13.1592 2.80856 13.9089 3.16939 14.5378C3.52995 15.1667 4.17864 15.5433 4.90225 15.5453L7.36156 15.5556C7.82017 15.5556 8.19295 15.1849 8.19489 14.726C8.19684 14.2658 7.82536 13.8909 7.36536 13.8889L4.90876 13.8786C4.73821 13.8781 4.65164 13.7721 4.61525 13.7088C4.57914 13.6455 4.53078 13.5172 4.61633 13.3703L6.28734 10.4948L6.74253 10.759C6.99253 10.904 7.26913 10.8737 7.47441 10.7373C7.69302 10.5921 7.83143 10.3264 7.77226 10.0244L7.38597 8.0545C7.34514 7.84672 7.21483 7.66559 7.02844 7.55754C6.93525 7.50337 6.83275 7.47054 6.72896 7.45988ZM14.9126 10.0255C14.7524 10.0138 14.5873 10.0481 14.4378 10.134C14.0387 10.3629 13.9002 10.8726 14.1291 11.2717L15.3504 13.4006C15.4351 13.5481 15.3865 13.6761 15.3498 13.7392C15.3132 13.8022 15.2263 13.9074 15.0585 13.9074L11.7338 13.8916V13.424C11.7338 13.1295 11.5713 12.8725 11.3096 12.7539C11.0579 12.6395 10.7717 12.6826 10.5625 12.8657L9.07326 14.1683C8.91381 14.3078 8.82261 14.511 8.82261 14.7266C8.82261 14.9421 8.91381 15.1454 9.07326 15.2849L10.5625 16.5869C10.6942 16.7019 10.9429 16.7846 11.1821 16.7421C11.5201 16.6818 11.7338 16.3229 11.7338 16.0281V15.5583L15.0569 15.574C15.7794 15.574 16.4269 15.2013 16.7903 14.5763C17.1547 13.9496 17.1568 13.1997 16.7962 12.5711L15.575 10.4427C15.4319 10.1931 15.1794 10.0451 14.9126 10.0255Z" fill="#333333"/>
</svg>
