<svg width="20" height="20" viewBox="0 0 20 20" fill="none" xmlns="http://www.w3.org/2000/svg">
<path d="M14.334 2C12.3087 2 10.6673 3.64133 10.6673 5.66667C10.6673 7.692 12.3087 9.33333 14.334 9.33333C16.3593 9.33333 18.0007 7.692 18.0007 5.66667C18.0007 3.64133 16.3593 2 14.334 2ZM13.9993 3.33333H14.666V3.94661C15.3087 4.03128 15.6865 4.36733 15.7285 4.91667H14.9134C14.8681 4.70133 14.6665 4.56901 14.3392 4.56901C14.0245 4.56901 13.791 4.71184 13.791 4.92318C13.791 5.08651 13.9329 5.18651 14.2415 5.25651L14.8691 5.39193C15.5171 5.53459 15.8079 5.80729 15.8079 6.30729C15.8079 6.88596 15.3573 7.28808 14.6673 7.38542V8H14.0007V7.38932C13.3207 7.30666 12.9127 6.96355 12.86 6.40755H13.7207C13.7874 6.63489 14.0022 6.76432 14.3535 6.76432C14.6955 6.76432 14.9316 6.62222 14.9316 6.40755C14.9316 6.24422 14.8044 6.14343 14.5111 6.07943L13.9056 5.94401C13.2576 5.80134 12.9421 5.49253 12.9421 4.97786C12.9421 4.43386 13.3547 4.04852 13.9993 3.95052V3.33333ZM5.33398 10C5.07877 10.0002 4.82596 10.0493 4.58919 10.1445L1.33398 11.3333V16.6667L4.14779 15.444C4.47979 15.3 4.85542 15.295 5.19075 15.4323L11.2337 17.901C11.2337 17.901 11.2363 17.901 11.2363 17.901C11.3708 17.9658 11.5181 17.9996 11.6673 18C11.84 17.9994 12.0095 17.9541 12.1595 17.8685C12.1596 17.8685 12.1634 17.8685 12.1634 17.8685L18.1543 14.5404L18.153 14.5391C18.3086 14.4526 18.4383 14.3262 18.5288 14.1728C18.6192 14.0194 18.667 13.8447 18.6673 13.6667C18.6673 13.4015 18.562 13.1471 18.3744 12.9596C18.1869 12.772 17.9325 12.6667 17.6673 12.6667C17.5205 12.6672 17.3755 12.7001 17.2428 12.763V12.7617L12.6673 14.6667H11.6673C11.9325 14.6667 12.1869 14.5613 12.3744 14.3738C12.562 14.1862 12.6673 13.9319 12.6673 13.6667C12.6673 13.4557 12.6005 13.2501 12.4765 13.0794C12.3526 12.9087 12.1778 12.7815 11.9772 12.7161V12.7148L6.18164 10.1875H6.17383C5.9108 10.0648 5.62422 10.0008 5.33398 10Z" fill="#333333"/>
</svg>
