<svg width="20" height="20" viewBox="0 0 20 20" fill="none" xmlns="http://www.w3.org/2000/svg">
<path d="M7.21252 3.61438C6.92818 3.6149 6.64441 3.72363 6.42802 3.94099L3.6638 6.71605C3.23186 7.14966 3.23186 7.85037 3.6638 8.28398L6.42802 11.059C6.64496 11.2768 6.93023 11.3856 7.21523 11.3856C7.49885 11.3856 7.78253 11.2779 7.9992 11.0618C8.43392 10.6287 8.43551 9.9253 8.00245 9.49058L7.12626 8.61113H11.9423C13.3215 8.61113 14.444 9.73359 14.444 11.1128C14.444 12.4919 13.3215 13.6144 11.9423 13.6144H10.8383C10.2247 13.6144 9.72717 14.1119 9.72717 14.7255C9.72717 15.3391 10.2247 15.8366 10.8383 15.8366H11.9423C14.5471 15.8366 16.6662 13.7175 16.6662 11.1128C16.6662 8.50803 14.5471 6.3889 11.9423 6.3889H7.12626L8.00245 5.50946C8.43523 5.07473 8.43364 4.37133 7.9992 3.93827C7.78156 3.72189 7.49686 3.61386 7.21252 3.61438ZM7.7773 13.6111C7.16369 13.6111 6.66619 14.1086 6.66619 14.7222C6.66619 15.3358 7.16369 15.8333 7.7773 15.8333C8.39091 15.8333 8.88841 15.3358 8.88841 14.7222C8.88841 14.1086 8.39091 13.6111 7.7773 13.6111ZM4.81452 13.6149C4.74095 13.6088 4.66605 13.6096 4.58991 13.6187C3.98046 13.6915 3.54572 14.2449 3.61877 14.8541C3.69155 15.4635 4.24496 15.8983 4.85412 15.8252C5.46357 15.7524 5.89832 15.199 5.82526 14.5899C5.76134 14.0568 5.32947 13.6577 4.81452 13.6149Z" fill="#333333"/>
</svg>
