<svg width="40" height="40" viewBox="0 0 40 40" fill="none" xmlns="http://www.w3.org/2000/svg">
<path d="M7.99967 5.32507C6.52634 5.32507 5.33301 6.51841 5.33301 7.99174V31.9917C5.33301 33.4651 6.52634 34.6584 7.99967 34.6584H31.9997C33.473 34.6584 34.6663 33.4651 34.6663 31.9917V10.6584L29.333 5.32507H26.6663V13.3251C26.6663 14.0611 26.069 14.6584 25.333 14.6584H13.333C12.597 14.6584 11.9997 14.0611 11.9997 13.3251V5.32507H7.99967ZM21.333 5.32507V11.9917H23.9997V5.32507H21.333ZM13.333 21.3251H26.6663C28.1397 21.3251 29.333 22.5184 29.333 23.9917V31.9917H10.6663V23.9917C10.6663 22.5184 11.8597 21.3251 13.333 21.3251Z" fill="#333333"/>
</svg>
