<svg width="20" height="21" viewBox="0 0 20 21" fill="none" xmlns="http://www.w3.org/2000/svg">
<path d="M16.3559 9.09068C16.6559 9.14225 16.875 9.40225 16.875 9.70662V10.9604C16.875 11.2647 16.6559 11.5247 16.3559 11.5763L15.2734 11.7626C15.15 12.2191 14.9706 12.6519 14.74 13.0529L15.3731 13.9491C15.5487 14.1976 15.5197 14.5366 15.3047 14.7516L14.4181 15.6382C14.2028 15.8535 13.8641 15.8822 13.6156 15.7066L12.7194 15.0738C12.3184 15.3044 11.8856 15.4835 11.4291 15.6072L11.2428 16.6897C11.1913 16.9894 10.9313 17.2085 10.6269 17.2085H9.37313C9.06875 17.2085 8.80875 16.9894 8.75719 16.6894L8.57094 15.6069C8.11438 15.4835 7.68156 15.3041 7.28063 15.0735L6.38438 15.7063C6.13594 15.8819 5.79687 15.8529 5.58187 15.6379L4.69531 14.7513C4.48031 14.536 4.45125 14.1972 4.62687 13.9488L5.26 13.0526C5.02938 12.6516 4.85 12.2188 4.72656 11.7622L3.64406 11.576C3.34406 11.5247 3.125 11.2647 3.125 10.9604V9.70662C3.125 9.40225 3.34406 9.14225 3.64406 9.09068L4.72656 8.90443C4.85 8.44787 5.02938 8.01506 5.26 7.61412L4.62687 6.71787C4.45125 6.46943 4.48031 6.13037 4.69531 5.91537L5.58187 5.02881C5.79719 4.81381 6.13594 4.78475 6.38438 4.96037L7.28063 5.5935C7.68156 5.36287 8.11438 5.18381 8.57094 5.06006L8.75719 3.97756C8.80875 3.67756 9.06875 3.4585 9.37313 3.4585H10.6269C10.9313 3.4585 11.1913 3.67756 11.2428 3.97756L11.4291 5.06006C11.8856 5.1835 12.3184 5.36287 12.7194 5.5935L13.6156 4.96037C13.8641 4.78475 14.2031 4.81381 14.4181 5.02881L15.3047 5.91537C15.5197 6.13037 15.5487 6.46943 15.3731 6.71787L14.74 7.61412C14.9706 8.01506 15.15 8.44787 15.2734 8.90443L16.3559 9.09068ZM10 12.8335C11.3806 12.8335 12.5 11.7141 12.5 10.3335C12.5 8.95287 11.3806 7.8335 10 7.8335C8.61937 7.8335 7.5 8.95287 7.5 10.3335C7.5 11.7141 8.61937 12.8335 10 12.8335Z" fill="#333333"/>
</svg>
