<svg width="20" height="21" viewBox="0 0 20 21" fill="none" xmlns="http://www.w3.org/2000/svg">
<path d="M16.3559 9.1815C16.6559 9.23307 16.875 9.49307 16.875 9.79744V11.0512C16.875 11.3556 16.6559 11.6156 16.3559 11.6671L15.2734 11.8534C15.15 12.3099 14.9706 12.7428 14.74 13.1437L15.3731 14.0399C15.5487 14.2884 15.5197 14.6274 15.3047 14.8424L14.4181 15.729C14.2028 15.9443 13.8641 15.9731 13.6156 15.7974L12.7194 15.1646C12.3184 15.3953 11.8856 15.5743 11.4291 15.6981L11.2428 16.7806C11.1913 17.0803 10.9313 17.2993 10.6269 17.2993H9.37313C9.06875 17.2993 8.80875 17.0803 8.75719 16.7803L8.57094 15.6978C8.11438 15.5743 7.68156 15.3949 7.28063 15.1643L6.38438 15.7971C6.13594 15.9728 5.79687 15.9437 5.58187 15.7287L4.69531 14.8421C4.48031 14.6268 4.45125 14.2881 4.62687 14.0396L5.26 13.1434C5.02938 12.7424 4.85 12.3096 4.72656 11.8531L3.64406 11.6668C3.34406 11.6156 3.125 11.3556 3.125 11.0512V9.79744C3.125 9.49307 3.34406 9.23307 3.64406 9.1815L4.72656 8.99525C4.85 8.53869 5.02938 8.10588 5.26 7.70494L4.62687 6.80869C4.45125 6.56025 4.48031 6.22119 4.69531 6.00619L5.58187 5.11963C5.79719 4.90463 6.13594 4.87557 6.38438 5.05119L7.28063 5.68432C7.68156 5.45369 8.11438 5.27463 8.57094 5.15088L8.75719 4.06838C8.80875 3.76838 9.06875 3.54932 9.37313 3.54932H10.6269C10.9313 3.54932 11.1913 3.76838 11.2428 4.06838L11.4291 5.15088C11.8856 5.27432 12.3184 5.45369 12.7194 5.68432L13.6156 5.05119C13.8641 4.87557 14.2031 4.90463 14.4181 5.11963L15.3047 6.00619C15.5197 6.22119 15.5487 6.56025 15.3731 6.80869L14.74 7.70494C14.9706 8.10588 15.15 8.53869 15.2734 8.99525L16.3559 9.1815ZM10 12.9243C11.3806 12.9243 12.5 11.8049 12.5 10.4243C12.5 9.04369 11.3806 7.92432 10 7.92432C8.61937 7.92432 7.5 9.04369 7.5 10.4243C7.5 11.8049 8.61937 12.9243 10 12.9243Z" fill="black"/>
</svg>
