<svg width="20" height="20" viewBox="0 0 20 20" fill="none" xmlns="http://www.w3.org/2000/svg">
<path d="M16.6664 4.78334V10.5083C16.6664 14.6445 11.3831 16.8195 10.7498 17.1167C10.5998 17.1861 10.4387 17.2222 10.2776 17.2222C10.1164 17.2222 9.95534 17.1861 9.80534 17.1167C9.172 16.8195 3.88867 14.6445 3.88867 10.5083V4.78334C3.88867 4.22223 4.30534 3.75001 4.86367 3.68056C4.89701 3.67501 7.93312 3.25556 9.78312 2.3389C10.0942 2.18334 10.4609 2.18334 10.772 2.3389C12.6276 3.25834 15.6581 3.67501 15.6914 3.68056C16.2498 3.75001 16.6664 4.22223 16.6664 4.78334Z" fill="#333333"/>
</svg>
