<svg width="125" height="26" viewBox="0 0 125 26" fill="none" xmlns="http://www.w3.org/2000/svg">
<path d="M17.3611 21.6049C17.1073 21.6049 16.8527 21.5354 16.6277 21.3951L12.5 18.8285L8.37219 21.3955C7.90135 21.6896 7.29997 21.6729 6.84406 21.3552C6.38851 21.0372 6.16629 20.4788 6.27879 19.9347L7.29372 15.0326L3.6024 11.8222C3.18469 11.4587 3.02254 10.882 3.1899 10.3542C3.35691 9.8264 3.82149 9.44862 4.37254 9.39202L9.27358 8.89133L11.2257 4.38612C11.4458 3.87814 11.9461 3.54932 12.5 3.54932C13.0538 3.54932 13.5541 3.87814 13.7743 4.38612L15.726 8.89133L20.627 9.39202C21.1781 9.44827 21.6427 9.8264 21.8097 10.3542C21.977 10.882 21.8152 11.4587 21.3972 11.8222L17.7059 15.0326L18.7208 19.9347C18.8333 20.4785 18.6111 21.0372 18.1555 21.3552C17.918 21.5212 17.6395 21.6049 17.3611 21.6049Z" fill="black"/>
<path d="M42.3611 21.6049C42.1073 21.6049 41.8527 21.5354 41.6277 21.3951L37.5 18.8285L33.3722 21.3955C32.9014 21.6896 32.3 21.6729 31.8441 21.3552C31.3885 21.0372 31.1663 20.4788 31.2788 19.9347L32.2937 15.0326L28.6024 11.8222C28.1847 11.4587 28.0225 10.882 28.1899 10.3542C28.3569 9.8264 28.8215 9.44862 29.3725 9.39202L34.2736 8.89133L36.2257 4.38612C36.4458 3.87814 36.9461 3.54932 37.5 3.54932C38.0538 3.54932 38.5541 3.87814 38.7743 4.38612L40.726 8.89133L45.627 9.39202C46.1781 9.44827 46.6427 9.8264 46.8097 10.3542C46.977 10.882 46.8152 11.4587 46.3972 11.8222L42.7059 15.0326L43.7208 19.9347C43.8333 20.4785 43.6111 21.0372 43.1555 21.3552C42.918 21.5212 42.6395 21.6049 42.3611 21.6049Z" fill="black"/>
<path d="M67.3611 21.6049C67.1073 21.6049 66.8527 21.5354 66.6277 21.3951L62.5 18.8285L58.3722 21.3955C57.9014 21.6896 57.3 21.6729 56.8441 21.3552C56.3885 21.0372 56.1663 20.4788 56.2788 19.9347L57.2937 15.0326L53.6024 11.8222C53.1847 11.4587 53.0225 10.882 53.1899 10.3542C53.3569 9.8264 53.8215 9.44862 54.3725 9.39202L59.2736 8.89133L61.2257 4.38612C61.4458 3.87814 61.9461 3.54932 62.5 3.54932C63.0538 3.54932 63.5541 3.87814 63.7743 4.38612L65.726 8.89133L70.627 9.39202C71.1781 9.44827 71.6427 9.8264 71.8097 10.3542C71.977 10.882 71.8152 11.4587 71.3972 11.8222L67.7059 15.0326L68.7208 19.9347C68.8333 20.4785 68.6111 21.0372 68.1555 21.3552C67.918 21.5212 67.6395 21.6049 67.3611 21.6049Z" fill="black"/>
<path d="M92.3611 21.6049C92.1073 21.6049 91.8527 21.5354 91.6277 21.3951L87.5 18.8285L83.3722 21.3955C82.9014 21.6896 82.3 21.6729 81.8441 21.3552C81.3885 21.0372 81.1663 20.4788 81.2788 19.9347L82.2937 15.0326L78.6024 11.8222C78.1847 11.4587 78.0225 10.882 78.1899 10.3542C78.3569 9.8264 78.8215 9.44862 79.3725 9.39202L84.2736 8.89133L86.2257 4.38612C86.4458 3.87814 86.9461 3.54932 87.5 3.54932C88.0538 3.54932 88.5541 3.87814 88.7743 4.38612L90.726 8.89133L95.627 9.39202C96.1781 9.44827 96.6427 9.8264 96.8097 10.3542C96.977 10.882 96.8152 11.4587 96.3972 11.8222L92.7059 15.0326L93.7208 19.9347C93.8333 20.4785 93.6111 21.0372 93.1555 21.3552C92.918 21.5212 92.6395 21.6049 92.3611 21.6049Z" fill="black"/>
<path d="M117.361 21.6049C117.107 21.6049 116.853 21.5354 116.628 21.3951L112.5 18.8285L108.372 21.3955C107.901 21.6896 107.3 21.6729 106.844 21.3552C106.389 21.0372 106.166 20.4788 106.279 19.9347L107.294 15.0326L103.602 11.8222C103.185 11.4587 103.023 10.882 103.19 10.3542C103.357 9.8264 103.821 9.44862 104.373 9.39202L109.274 8.89133L111.226 4.38612C111.446 3.87814 111.946 3.54932 112.5 3.54932C113.054 3.54932 113.554 3.87814 113.774 4.38612L115.726 8.89133L120.627 9.39202C121.178 9.44827 121.643 9.8264 121.81 10.3542C121.977 10.882 121.815 11.4587 121.397 11.8222L117.706 15.0326L118.721 19.9347C118.833 20.4785 118.611 21.0372 118.156 21.3552C117.918 21.5212 117.64 21.6049 117.361 21.6049Z" fill="black"/>
</svg>
