<svg width="40" height="40" viewBox="0 0 40 40" fill="none" xmlns="http://www.w3.org/2000/svg">
<path d="M15.6 1.59167C13.168 1.59167 11.2 3.55967 11.2 5.99168C11.2 7.37568 11.8312 8.6073 12.8312 9.4073L12.8406 6.56824C12.8406 6.07224 12.9444 3.22292 15.4484 3.22292C16.8084 3.22292 18.1361 4.27961 18.1281 6.12761V9.59168C19.2641 8.79968 20 7.47968 20 5.99168C20 3.55967 18.032 1.59167 15.6 1.59167ZM15.2953 4.0323C14.0553 4.1283 13.6406 5.37624 13.6406 6.56824L13.6 23.5917C13.6 23.8157 13.424 23.9917 13.2 23.9917C12.976 23.9917 12.8 23.8157 12.8 23.5917V18.3995L11.464 19.5761C9.42403 21.3201 8.69541 24.1359 9.62341 26.6479C9.79141 27.1039 9.97616 27.6161 10.1922 28.1761C11.5842 31.9121 14.4886 33.5912 16.2406 34.2792C22.1446 36.6072 27.9032 33.5196 29.6312 29.1276C31.1672 25.2236 30.9833 22.0324 30.9593 20.0964C30.9025 15.6804 28.0123 16.0738 27.8875 16.1042C27.6635 16.1682 27.2392 16.352 27.2312 16.712L27.2406 19.6323C27.2486 20.0323 27.072 20.1761 26.8 20.1761C26.52 20.1761 26.3687 19.9441 26.3687 19.6401V15.6964C26.3687 14.1236 23.9112 13.3864 23.264 13.7432C22.992 13.8872 22.6392 14.247 22.6312 14.687L22.6484 18.9198C22.6564 19.4078 22.5036 19.6229 22.2156 19.6229C21.9196 19.6149 21.8404 19.4003 21.8484 19.0323V14.1604C21.8484 12.7508 20.0905 11.9811 18.9281 12.0323C18.5601 12.0483 18.1203 12.5589 18.1203 13.0229L18.1281 17.8557C18.1201 18.2877 18.0563 18.5431 17.7203 18.5511C17.3843 18.5511 17.3203 18.1994 17.3203 17.9354L17.3281 6.12761C17.3361 4.87161 16.4873 3.9443 15.2953 4.0323Z" fill="#333333"/>
</svg>
