<svg width="20" height="20" viewBox="0 0 20 20" fill="none" xmlns="http://www.w3.org/2000/svg">
<g clip-path="url(#clip0_302_4239)">
<path d="M10.0008 0.799988C4.91958 0.799988 0.800781 4.91879 0.800781 9.99999C0.800781 15.0812 4.91958 19.2 10.0008 19.2C15.082 19.2 19.2008 15.0812 19.2008 9.99999C19.2008 4.91879 15.082 0.799988 10.0008 0.799988ZM10.0008 18.4C5.36918 18.4 1.60078 14.632 1.60078 9.99999C1.60078 7.78919 2.45518 5.70079 4.00678 4.11999C4.16158 3.96159 4.41478 3.95999 4.57238 4.11439C4.73038 4.26919 4.73238 4.52239 4.57798 4.67999C3.17398 6.11079 2.40078 7.99999 2.40078 9.99999C2.40078 14.1908 5.80998 17.6 10.0008 17.6C14.1916 17.6 17.6008 14.1908 17.6008 9.99999C17.6008 5.94439 14.4052 2.63039 10.4008 2.42039V4.79999C10.4008 5.02079 10.222 5.19999 10.0008 5.19999C9.77958 5.19999 9.60078 5.02079 9.60078 4.79999V1.99999C9.60078 1.77919 9.77958 1.59999 10.0008 1.59999C14.6324 1.59999 18.4008 5.36799 18.4008 9.99999C18.4008 14.632 14.6324 18.4 10.0008 18.4ZM6.00078 5.99999C6.00078 5.99999 10.3804 8.68279 10.8492 9.15159C11.318 9.62039 11.318 10.3804 10.8492 10.8488C10.3808 11.3172 9.62118 11.3176 9.15238 10.8488C8.68358 10.38 6.00078 5.99999 6.00078 5.99999Z" fill="#333333"/>
</g>
<defs>
<clipPath id="clip0_302_4239">
<rect width="20" height="20" fill="white"/>
</clipPath>
</defs>
</svg>
