<svg width="20" height="20" viewBox="0 0 20 20" fill="none" xmlns="http://www.w3.org/2000/svg">
<path d="M8.4375 4.375C8.0925 4.375 7.8125 4.655 7.8125 5H3.94653C2.97653 5 2.1875 5.78874 2.1875 6.75842V7.1875C2.1875 7.5325 2.4675 7.8125 2.8125 7.8125H6.25V7.5C6.25 7.155 6.53 6.875 6.875 6.875C7.22 6.875 7.5 7.155 7.5 7.5V7.8125H12.5V7.5C12.5 7.155 12.78 6.875 13.125 6.875C13.47 6.875 13.75 7.155 13.75 7.5V7.8125H17.1875C17.5325 7.8125 17.8125 7.5325 17.8125 7.1875V6.75842C17.8125 5.78874 17.0235 5 16.0535 5H12.1875C12.1875 4.655 11.9075 4.375 11.5625 4.375H8.4375ZM2.84058 9.0625C2.84058 9.0625 3.01529 12.9115 3.07373 14.1943C3.11842 15.1718 3.91963 15.9375 4.89807 15.9375H15.1019C16.0804 15.9375 16.8819 15.1715 16.9263 14.1937C16.9847 12.9109 17.1594 9.0625 17.1594 9.0625H13.75V9.375C13.75 9.72 13.47 10 13.125 10C12.78 10 12.5 9.72 12.5 9.375V9.0625H7.5V9.375C7.5 9.72 7.22 10 6.875 10C6.53 10 6.25 9.72 6.25 9.375V9.0625H2.84058Z" fill="#333333"/>
</svg>
