<svg width="20" height="20" viewBox="0 0 20 20" fill="none" xmlns="http://www.w3.org/2000/svg">
<path d="M9.99935 1.33331C5.94935 1.33331 2.66602 4.61665 2.66602 8.66665C2.66602 13.4893 7.43457 15.7986 8.0319 16.3359C8.6419 16.8846 9.14497 18.1138 9.34831 18.8112C9.44697 19.1498 9.72468 19.3208 9.99935 19.3281C10.2747 19.3201 10.5517 19.1492 10.6504 18.8112C10.8537 18.1138 11.3568 16.8852 11.9668 16.3359C12.5641 15.7986 17.3327 13.4893 17.3327 8.66665C17.3327 4.61665 14.0493 1.33331 9.99935 1.33331ZM7.33268 5.33331H12.666C13.034 5.33331 13.3327 5.63198 13.3327 5.99998V11.3333C13.3327 11.7013 13.034 12 12.666 12H7.33268C6.96468 12 6.66602 11.7013 6.66602 11.3333V5.99998C6.66602 5.63198 6.96468 5.33331 7.33268 5.33331ZM8.66602 6.66665V7.33331H11.3327V6.66665H8.66602Z" fill="#333333"/>
</svg>
