<svg width="20" height="20" viewBox="0 0 20 20" fill="none" xmlns="http://www.w3.org/2000/svg">
<path d="M9.99935 1.33337C7.88468 1.33337 6.15834 2.97479 6.01367 5.05212C4.05234 5.84012 2.66602 7.75671 2.66602 10C2.66602 12.9454 5.05402 15.3334 7.99935 15.3334H9.33268V10.4519L6.41862 9.2865C6.07662 9.14917 5.90956 8.76131 6.04622 8.41931C6.18289 8.07731 6.57408 7.91288 6.91341 8.04822L9.33268 9.01567V6.66671C9.33268 6.29871 9.63068 6.00004 9.99935 6.00004C10.368 6.00004 10.666 6.29871 10.666 6.66671V9.98702V9.98832V11.5886L12.3678 10.737C12.6972 10.5724 13.097 10.7059 13.2624 11.0352C13.427 11.3645 13.2935 11.7651 12.9642 11.9297L10.666 13.0782V15.3334H12.666C15.2433 15.3334 17.3327 13.244 17.3327 10.6667C17.3327 8.52071 15.8822 6.71788 13.9095 6.17322C13.9675 5.90255 13.9993 5.62137 13.9993 5.33337C13.9993 3.12404 12.2087 1.33337 9.99935 1.33337ZM10.666 15.3334H9.33268V18C9.33268 18.368 9.63068 18.6667 9.99935 18.6667C10.368 18.6667 10.666 18.368 10.666 18V15.3334Z" fill="#333333"/>
</svg>
