<svg width="20" height="20" viewBox="0 0 20 20" fill="none" xmlns="http://www.w3.org/2000/svg">
<path d="M5.83312 3.05554C4.91117 3.05554 4.16645 3.80304 4.16645 4.72221C4.16645 5.64138 4.91117 6.38888 5.83312 6.38888C6.75506 6.38888 7.49978 5.64138 7.49978 4.72221C7.49978 3.80304 6.75506 3.05554 5.83312 3.05554ZM8.48286 3.88888C8.56619 4.15276 8.61089 4.43054 8.61089 4.72221C8.61089 5.40832 8.36079 6.03894 7.94412 6.52505C7.97356 6.55144 7.99602 6.57156 8.01519 6.58961C8.03436 6.60795 8.68034 7.28623 8.68034 7.28623L9.31348 6.92219C9.60514 6.75552 9.93867 6.66665 10.2776 6.66665C11.0164 6.66665 11.6803 7.07766 12.0137 7.73599C12.4803 8.66099 12.122 9.79725 11.2026 10.3223L9.29991 11.4111C9.20769 11.4622 9.11098 11.5076 9.01237 11.5446C8.97126 11.5599 8.93034 11.5741 8.88867 11.5864C8.88867 11.9483 8.8324 12.1839 8.75629 12.373C8.73851 12.4178 8.71931 12.4594 8.69987 12.5H14.9998C15.9192 12.5 16.6664 11.7528 16.6664 10.8333V5.55554C16.6664 4.6361 15.9192 3.88888 14.9998 3.88888H8.48286ZM5.55534 6.94443C4.63478 6.94443 3.88867 7.69054 3.88867 8.6111V11.6667C3.88867 12.1269 4.26173 12.5 4.72201 12.5H6.94423C7.40451 12.5 7.77756 12.1269 7.77756 11.6667V10.325C7.79784 10.3411 7.81832 10.3571 7.83832 10.3733C7.9711 10.4794 8.1302 10.5382 8.29243 10.5479C8.44493 10.5571 8.60004 10.5227 8.73893 10.4438L10.6915 9.33321C11.0915 9.10543 11.2302 8.59714 10.9997 8.19714C10.7719 7.79714 10.2636 7.65843 9.86361 7.88898L8.48014 8.67783L7.34191 7.49022C7.03718 7.1555 6.59923 6.94443 6.11089 6.94443H5.55534ZM6.10927 13.3333C5.18732 13.3333 4.4426 14.0808 4.4426 15C4.4426 15.9192 5.18732 16.6667 6.10927 16.6667C7.03121 16.6667 7.77593 15.9192 7.77593 15C7.77593 14.0808 7.03121 13.3333 6.10927 13.3333ZM9.99816 13.3333C9.07621 13.3333 8.33149 14.0808 8.33149 15C8.33149 15.9192 9.07621 16.6667 9.99816 16.6667C10.9201 16.6667 11.6648 15.9192 11.6648 15C11.6648 14.0808 10.9201 13.3333 9.99816 13.3333ZM13.887 13.3333C12.9651 13.3333 12.2204 14.0808 12.2204 15C12.2204 15.9192 12.9651 16.6667 13.887 16.6667C14.809 16.6667 15.5537 15.9192 15.5537 15C15.5537 14.0808 14.809 13.3333 13.887 13.3333Z" fill="#333333"/>
</svg>
