<svg width="20" height="21" viewBox="0 0 20 21" fill="none" xmlns="http://www.w3.org/2000/svg">
<path d="M9.99992 3.87878C6.32409 3.87878 3.33325 6.86962 3.33325 10.5455C3.33325 10.7643 3.34415 10.9847 3.36526 11.2008C3.42165 11.7744 3.90514 12.2034 4.46986 12.2034C4.50625 12.2034 4.54279 12.2019 4.57945 12.198C5.19001 12.1383 5.63663 11.5947 5.57663 10.9838C5.56247 10.8399 5.55547 10.6924 5.55547 10.5455C5.55547 8.0949 7.54936 6.10101 9.99992 6.10101C10.5942 6.10101 11.1708 6.2177 11.704 6.43901C11.5096 6.6391 11.3888 6.91114 11.3888 7.21212C11.3888 7.82573 11.8863 8.32323 12.4999 8.32323H14.4444C15.058 8.32323 15.5555 7.82573 15.5555 7.21212V5.26767C15.5555 4.65406 15.058 4.15656 14.4444 4.15656C13.9886 4.15656 13.5979 4.43174 13.4266 4.82442C12.4018 4.20812 11.2259 3.87878 9.99992 3.87878ZM15.4204 8.89289C14.8098 8.95261 14.3632 9.49625 14.4232 10.1071C14.4374 10.251 14.4444 10.3985 14.4444 10.5455C14.4444 12.996 12.4505 14.9899 9.99992 14.9899C9.40663 14.9899 8.8305 14.8722 8.2969 14.6508C8.49066 14.4508 8.61103 14.1792 8.61103 13.8788C8.61103 13.2652 8.11353 12.7677 7.49992 12.7677H5.55547C4.94186 12.7677 4.44436 13.2652 4.44436 13.8788V15.8232C4.44436 16.4368 4.94186 16.9343 5.55547 16.9343C6.01196 16.9343 6.40341 16.6585 6.57435 16.2649C7.60002 16.8811 8.77633 17.2121 9.99992 17.2121C13.6758 17.2121 16.6666 14.2213 16.6666 10.5455C16.6666 10.3266 16.6557 10.1059 16.6346 9.89007C16.5749 9.27951 16.0318 8.8315 15.4204 8.89289Z" fill="#333333"/>
</svg>
