<svg width="20" height="21" viewBox="0 0 20 21" fill="none" xmlns="http://www.w3.org/2000/svg">
<path d="M13.8876 1.5459C13.5907 1.5459 13.2407 1.60684 12.7626 1.7334C11.5595 2.05059 4.50479 4.00215 4.4001 4.0334C3.35322 4.42715 2.69072 4.81465 2.2751 5.2709C2.7626 4.94121 3.34385 4.7334 4.0001 4.7334H15.2001V3.3959C15.2001 2.74902 15.1954 1.5459 13.8876 1.5459ZM4.0001 5.5334C2.5126 5.5334 1.6001 6.93184 1.6001 7.9334V16.4834C1.6001 17.7225 2.61104 18.7334 3.8501 18.7334H16.1501C17.3892 18.7334 18.4001 17.7225 18.4001 16.4834V7.8709C18.4001 6.64746 17.2563 5.5334 16.0001 5.5334H4.0001ZM15.4001 11.1334C15.9517 11.1334 16.4001 11.5803 16.4001 12.1334C16.4001 12.6865 15.9517 13.1334 15.4001 13.1334C14.847 13.1334 14.4001 12.6865 14.4001 12.1334C14.4001 11.5803 14.847 11.1334 15.4001 11.1334Z" fill="#333333"/>
</svg>
