<svg width="20" height="20" viewBox="0 0 20 20" fill="none" xmlns="http://www.w3.org/2000/svg">
<path d="M10 3.125C13.7906 3.125 16.875 6.20937 16.875 10C16.875 13.7906 13.7906 16.875 10 16.875C6.20937 16.875 3.125 13.7906 3.125 10C3.125 6.20937 6.20937 3.125 10 3.125ZM6.44156 8.01719C6.44156 10.1538 9.00031 10.7634 9.61156 10.7634C9.72687 10.7634 9.87562 10.7 9.87562 10.4994C9.87562 10.0741 8.81906 10.1013 8.81906 9.17844C8.81906 8.77844 9.19562 8.65 9.46 8.65C9.85906 8.65 9.81594 9.17844 10.14 9.17844C10.3369 9.17844 10.4041 8.97844 10.4041 8.91437C10.4041 7.56156 11.4606 7.56812 11.4606 6.53687C11.4606 6.00469 11.0234 5.74437 10.5669 5.74437C10.1653 5.74437 10.0241 6.00844 9.61156 6.00844C9.32188 6.00844 9.125 5.77406 9.125 5.49906C9.125 5.19156 9.87594 4.61438 9.87594 4.33188C7.93219 4.525 6.97813 5.12406 6.10687 5.93969C6.36625 6.45844 6.44156 7.32 6.44156 8.01719ZM12.8528 13.2837C13.0284 13.0269 13.8384 12.4153 13.8384 11.1041C13.8384 10.7384 13.0391 10.635 12.7909 10.4556C12.5656 10.2928 12.3356 9.97062 11.17 9.97062C9.96875 9.97062 10.2525 10.4419 10.0803 10.7934C9.90906 11.1425 9.61094 11.2828 9.61094 11.4597C9.61094 12.4556 10.8734 12.18 10.8734 13.6972C10.8734 14.4216 10.3672 15.5378 10.8225 15.5378C11.7537 15.5381 12.5966 13.6584 12.8528 13.2837ZM14.0163 8.72813C14.3872 9.54437 15.0803 9.57813 15.6144 10.3053C15.7381 8.3275 14.7284 6.62125 14.1941 6.33906C13.8084 6.81375 13.7188 8.07406 14.0163 8.72813Z" fill="#333333"/>
</svg>
